<?xml version="1.0" standalone="no"?>
<!DOCTYPE svg PUBLIC "-//W3C//DTD SVG 1.1//EN" "http://www.w3.org/Graphics/SVG/1.1/DTD/svg11.dtd" >
<svg xmlns="http://www.w3.org/2000/svg" xmlns:xlink="http://www.w3.org/1999/xlink" version="1.1">
<metadata>
Created by FontForge 20170731 at Wed Oct  6 19:46:39 2010
 By Aleksey,,,
Copyright (c) Mark Simonson, 2005. All rights reserved.
</metadata>
<defs>
<font id="ProximaNovaACond-RegularIt" horiz-adv-x="438" >
  <font-face 
    font-family="Proxima Nova Alt Cn Rg"
    font-weight="400"
    font-style="italic"
    font-stretch="normal"
    units-per-em="1000"
    panose-1="2 0 5 6 3 0 0 2 0 4"
    ascent="800"
    descent="-200"
    x-height="483"
    cap-height="667"
    bbox="-189 -199 915 875"
    underline-thickness="20"
    underline-position="-173"
    unicode-range="U+000D-FB02"
  />
<missing-glyph horiz-adv-x="492" 
d="M441 -90h-351v842h351v-842zM409 -60v782h-288v-782h288z" />
    <glyph glyph-name="fi" unicode="fi" horiz-adv-x="456" 
d="M101 0h-72l93 420h-64l14 63h64l12 58q30 136 138 136q41 0 69 -17l-28 -58q-14 11 -36 11q-55 0 -71 -72l-13 -58h82l-14 -63h-81zM428 553q-19 0 -32 12.5t-13 29.5q0 25 17.5 40.5t37.5 15.5q19 0 32 -12.5t13 -30.5q0 -25 -17 -40t-38 -15zM336 0h-71l107 483h71z
" />
    <glyph glyph-name="fl" unicode="fl" horiz-adv-x="491" 
d="M101 0h-72l93 420h-64l14 63h64l12 58q30 136 138 136q41 0 69 -17l-28 -58q-14 11 -36 11q-55 0 -71 -72l-13 -58h82l-14 -63h-81zM379 -12q-46 0 -71.5 19.5t-25.5 56.5q0 17 4 36l126 567h71l-123 -555q0 -2 -1.5 -11t-1.5 -14q0 -35 39 -35q22 0 39 15l9 -57
q-27 -22 -65 -22z" />
    <glyph glyph-name=".notdef" horiz-adv-x="492" 
d="M441 -90h-351v842h351v-842zM409 -60v782h-288v-782h288z" />
    <glyph glyph-name=".null" horiz-adv-x="0" 
 />
    <glyph glyph-name="nonmarkingreturn" horiz-adv-x="333" 
 />
    <glyph glyph-name="NUL" horiz-adv-x="0" 
 />
    <glyph glyph-name="NUL" horiz-adv-x="0" 
 />
    <glyph glyph-name="CR" unicode="&#xd;" horiz-adv-x="0" 
 />
    <glyph glyph-name="space" unicode=" " horiz-adv-x="215" 
 />
    <glyph glyph-name="exclam" unicode="!" horiz-adv-x="228" 
d="M130 185h-59l91 482h90zM64 -10q-20 0 -34 14.5t-14 34.5q0 24 17 41t41 17q21 0 35 -14.5t14 -35.5q0 -24 -17.5 -40.5t-41.5 -16.5z" />
    <glyph glyph-name="quotedbl" unicode="&#x22;" horiz-adv-x="340" 
d="M152 414h-36q21 199 21 210q2 23 16 38t36 15q17 0 28 -11.5t11 -28.5q0 -3 -5 -23zM296 414h-35q20 199 21 210q2 24 16 38.5t36 14.5q16 0 27.5 -11.5t11.5 -28.5q0 -11 -6 -23z" />
    <glyph glyph-name="numbersign" unicode="#" horiz-adv-x="507" 
d="M209 0h-59l93 182h-92l-91 -182h-59l92 182h-88l25 51h89l101 201h-88l23 51h91l91 182h59l-91 -182h90l91 182h59l-92 -182h88l-24 -51h-89l-102 -201h91l-25 -51h-92zM267 233l102 201h-90l-102 -201h90z" />
    <glyph glyph-name="dollar" unicode="$" horiz-adv-x="469" 
d="M136 -100l20 93q-107 18 -154 89l52 58q42 -62 118 -78l56 251q-30 20 -47 33t-38 35t-31 47.5t-10 55.5q0 80 60 137t146 57h1l20 90h59l-22 -96q83 -19 125 -75l-50 -57q-35 45 -91 61l-51 -230q58 -38 90.5 -76.5t32.5 -95.5q0 -86 -57.5 -147.5t-150.5 -63.5l-19 -88
h-59zM338 187q0 46 -59 92l-49 -219q50 7 79 42.5t29 84.5zM186 495q0 -43 62 -89l45 200q-46 -4 -76.5 -36t-30.5 -75z" />
    <glyph glyph-name="percent" unicode="%" horiz-adv-x="650" 
d="M121 0h-47l497 667h48zM441 -12q-57 0 -91.5 36t-34.5 92q0 85 49 143t113 58q57 0 92 -36t35 -92q0 -85 -49 -143t-114 -58zM443 37q41 0 73 43t32 104q0 39 -20 61.5t-53 22.5q-40 0 -72 -43t-32 -104q0 -39 19.5 -61.5t52.5 -22.5zM212 348q-57 0 -92 36.5t-35 91.5
q0 85 49 143t114 58q57 0 91.5 -36t34.5 -92q0 -85 -49 -143t-113 -58zM214 397q40 0 72 43t32 104q0 39 -19.5 61.5t-52.5 22.5q-41 0 -73 -43t-32 -104q0 -39 20 -61.5t53 -22.5z" />
    <glyph glyph-name="ampersand" unicode="&#x26;" horiz-adv-x="522" 
d="M437 0h-84q-13 21 -30 53q-75 -65 -153 -65q-69 0 -112.5 38t-43.5 108q0 87 45 141t125 99q-15 56 -15 107q0 80 48.5 138t112.5 58q52 0 84.5 -28.5t32.5 -83.5q0 -33 -12 -61.5t-24.5 -46t-45 -41t-46 -31.5t-55.5 -32q14 -41 37 -90q23 -56 43 -98q46 62 87 146
l55 -32q-58 -108 -111 -173q18 -34 62 -106zM182 48q52 0 113 59q-39 76 -53 110q-24 57 -39 100q-53 -34 -82 -75t-29 -99q0 -44 26 -69.5t64 -25.5zM239 477q0 -31 8 -68q65 35 99 69t34 85q0 58 -52 58q-33 0 -61 -43t-28 -101z" />
    <glyph glyph-name="quotesingle" unicode="'" horiz-adv-x="197" 
d="M152 414h-36q21 199 21 210q2 23 16 38t36 15q17 0 28 -11.5t11 -28.5q0 -3 -5 -23z" />
    <glyph glyph-name="parenleft" unicode="(" horiz-adv-x="229" 
d="M119 -176l-52 -23q-45 114 -45 250q0 339 239 634l41 -31q-96 -144 -151 -309t-55 -330q0 -87 23 -191z" />
    <glyph glyph-name="parenright" unicode=")" horiz-adv-x="229" 
d="M109 662l52 23q45 -114 45 -250q0 -339 -239 -634l-41 31q96 144 151 309t55 330q0 87 -23 191z" />
    <glyph glyph-name="asterisk" unicode="*" horiz-adv-x="322" 
d="M215 391h-45l32 117l-111 -51l-13 40l114 40l-90 63l30 35l82 -72l20 114h45l-32 -117l110 51l13 -40l-112 -41l89 -62l-31 -35l-82 71z" />
    <glyph glyph-name="plus" unicode="+" 
d="M424 312h-162l-41 -184h-56l41 184h-162l11 51h163l39 177h55l-39 -177h163z" />
    <glyph glyph-name="comma" unicode="," horiz-adv-x="229" 
d="M125 40q0 -45 -33 -90.5t-80 -69.5l-30 32q28 14 51.5 37t31.5 47q-1 -1 -8 -1q-17 0 -29 12.5t-12 31.5q0 24 17.5 41t40.5 17q22 0 36.5 -15t14.5 -42z" />
    <glyph glyph-name="hyphen" unicode="-" horiz-adv-x="268" 
d="M230 210h-208l14 64h208z" />
    <glyph glyph-name="period" unicode="." horiz-adv-x="229" 
d="M65 -10q-21 0 -35 14.5t-14 34.5q0 24 17.5 41t41.5 17q20 0 34 -14.5t14 -35.5q0 -24 -17 -40.5t-41 -16.5z" />
    <glyph glyph-name="slash" unicode="/" horiz-adv-x="248" 
d="M-1 -20h-58l348 707h59z" />
    <glyph glyph-name="zero" unicode="0" horiz-adv-x="514" 
d="M223 -12q-82 0 -128 58t-46 164q0 77 20 158.5t55.5 151t89.5 113.5t116 44q82 0 127 -57.5t45 -164.5q0 -105 -33 -210.5t-99 -181t-147 -75.5zM229 59q42 0 80 43t62 106.5t38 132t14 124.5q0 141 -100 141q-56 0 -103 -72.5t-69.5 -164t-22.5 -168.5q0 -142 101 -142z
" />
    <glyph glyph-name="one" unicode="1" horiz-adv-x="315" 
d="M191 0h-79l124 562l-127 -110l-37 50l196 165h70z" />
    <glyph glyph-name="two" unicode="2" horiz-adv-x="491" 
d="M377 0h-379l18 80q31 28 79 70t72.5 63.5t60.5 54.5t54.5 51.5t42.5 44t35.5 42t23.5 37t16.5 37.5t4.5 35q0 42 -29 66.5t-77 24.5q-82 0 -139 -68l-42 52q76 87 187 87q79 0 131.5 -40.5t52.5 -114.5q0 -31 -9 -61t-32.5 -65t-45.5 -62.5t-69 -72.5t-79.5 -75
t-98.5 -89q-19 -17 -29 -26h266z" />
    <glyph glyph-name="three" unicode="3" horiz-adv-x="474" 
d="M204 -12q-73 0 -130 36.5t-77 99.5l63 41q17 -50 55.5 -78t88.5 -28q61 0 97.5 46t36.5 109q0 44 -30.5 68.5t-81.5 24.5q-38 0 -47 -1l16 73q9 -1 69 -1q58 0 95.5 39t37.5 98q0 42 -30.5 66.5t-82.5 24.5q-77 0 -134 -68l-41 50q34 40 82.5 64.5t101.5 24.5
q83 0 134.5 -39.5t51.5 -111.5q0 -70 -47.5 -124t-112.5 -63q45 -13 71 -49t26 -84q0 -88 -60.5 -153t-151.5 -65z" />
    <glyph glyph-name="four" unicode="4" horiz-adv-x="463" 
d="M312 0h-79l38 171h-265l17 75l331 421h105l-94 -426h73l-15 -70h-73zM286 241l75 337l-265 -337h190z" />
    <glyph glyph-name="five" unicode="5" horiz-adv-x="493" 
d="M218 -12q-147 0 -198 133l64 41q33 -103 136 -103q58 0 101 57t43 131q0 49 -29 76.5t-78 27.5q-59 0 -115 -51l-53 26l75 341h341l-15 -71h-262l-50 -225q47 47 117 47q66 0 109 -43.5t43 -119.5q0 -107 -65.5 -187t-163.5 -80z" />
    <glyph glyph-name="six" unicode="6" horiz-adv-x="493" 
d="M225 -12q-88 0 -133.5 56.5t-45.5 154.5q0 64 17.5 142t51 155t93.5 129t134 52q57 0 99.5 -27t62.5 -74l-56 -50q-12 37 -41 58.5t-70 21.5q-38 0 -71 -23t-56 -62.5t-38.5 -81t-27.5 -90.5q-4 -13 -5 -21q27 37 69 63t88 26q68 0 111.5 -41.5t43.5 -114.5
q0 -103 -64.5 -188t-161.5 -85zM228 59q60 0 100 62.5t40 129.5q0 44 -27.5 71.5t-76.5 27.5q-71 0 -137 -92q-5 -28 -5 -70q0 -59 27.5 -94t78.5 -35z" />
    <glyph glyph-name="seven" unicode="7" horiz-adv-x="424" 
d="M132 0h-89l341 596h-280l15 71h373l-13 -55z" />
    <glyph glyph-name="eight" unicode="8" horiz-adv-x="487" 
d="M217 -12q-89 0 -142 38.5t-53 114.5q0 71 47 127.5t131 82.5q-38 21 -65 57.5t-27 81.5q0 81 61.5 134t143.5 53q76 0 130 -38.5t54 -110.5q0 -74 -47.5 -123.5t-119.5 -66.5q42 -25 70.5 -65t28.5 -88q0 -85 -61.5 -141t-150.5 -56zM272 374q60 11 100.5 47.5t40.5 96.5
q0 39 -29.5 63t-75.5 24q-50 0 -85.5 -36t-35.5 -90q0 -35 26.5 -64t58.5 -41zM217 59q52 0 92 39t40 97q0 43 -29 75t-61 42q-65 -10 -109.5 -53t-44.5 -104q0 -47 31.5 -71.5t80.5 -24.5z" />
    <glyph glyph-name="nine" unicode="9" horiz-adv-x="493" 
d="M307 678q88 0 133.5 -56.5t45.5 -154.5q0 -50 -10.5 -110t-34 -126t-56.5 -119.5t-84 -88t-111 -34.5q-57 0 -99.5 27t-62.5 74l56 50q12 -37 41 -58.5t70 -21.5q50 0 91 42t63.5 95t38.5 120q2 6 3 12t2 9q-27 -37 -69 -63t-88 -26q-68 0 -111.5 41.5t-43.5 114.5
q0 103 64.5 188t161.5 85zM304 607q-60 0 -100.5 -62.5t-40.5 -129.5q0 -44 28 -71.5t76 -27.5q73 0 137 92q6 34 6 70q0 59 -27.5 94t-78.5 35z" />
    <glyph glyph-name="colon" unicode=":" horiz-adv-x="226" 
d="M65 -10q-20 0 -34.5 14.5t-14.5 34.5q0 24 17.5 41t41.5 17q20 0 34 -14.5t14 -35.5q0 -24 -17 -40.5t-41 -16.5zM152 383q-21 0 -35 14.5t-14 34.5q0 24 17.5 41t41.5 17q20 0 34 -14.5t14 -34.5q0 -24 -17 -41t-41 -17z" />
    <glyph glyph-name="semicolon" unicode=";" horiz-adv-x="228" 
d="M125 40q0 -45 -33 -90.5t-80 -69.5l-30 32q28 14 51.5 37t31.5 47q-1 -1 -8 -1q-17 0 -29 12.5t-12 31.5q0 24 17.5 41t40.5 17q22 0 36.5 -15t14.5 -42zM152 383q-21 0 -35 14.5t-14 34.5q0 24 17.5 41t41.5 17q20 0 34 -14.5t14 -34.5q0 -24 -17 -41t-41 -17z" />
    <glyph glyph-name="less" unicode="&#x3c;" 
d="M382 125l-339 184l11 51l422 184l-15 -63l-351 -150l285 -148z" />
    <glyph glyph-name="equal" unicode="=" 
d="M445 405h-381l12 51h380zM402 212h-381l12 51h380z" />
    <glyph glyph-name="greater" unicode="&#x3e;" 
d="M423 309l-421 -184l15 64l351 148l-285 149l12 58l340 -184z" />
    <glyph glyph-name="question" unicode="?" horiz-adv-x="388" 
d="M220 210l-65 -26q-17 31 -17 66q0 39 21 71t50.5 54t59.5 43t51 49t21 62t-25 56.5t-69 22.5q-61 0 -111 -45l-30 54q67 60 155 60q73 0 118.5 -37.5t45.5 -94.5q0 -46 -22.5 -83t-54.5 -61.5t-63.5 -46t-54 -47t-22.5 -54.5q0 -26 12 -43zM142 -10q-20 0 -34 14.5
t-14 34.5q0 24 17 41t41 17q21 0 35 -14.5t14 -35.5q0 -24 -17.5 -40.5t-41.5 -16.5z" />
    <glyph glyph-name="at" unicode="@" horiz-adv-x="693" 
d="M328 -70q-121 0 -197 83.5t-76 216.5q0 106 50.5 200.5t134.5 151t179 56.5q115 0 186.5 -78.5t71.5 -202.5q0 -119 -49 -195.5t-111 -76.5q-36 0 -58.5 21.5t-24.5 54.5l-1 6q-54 -82 -134 -82q-54 0 -88 37t-34 106q0 105 62.5 188t147.5 83q37 0 63 -21t37 -54l12 59
h65l-58 -274q-2 -12 -2 -25q0 -47 38 -47q19 0 41 22t40.5 75t18.5 123q0 113 -62 180t-163 67q-86 0 -162 -53.5t-120.5 -139.5t-44.5 -180q0 -118 67 -193t175 -75q83 0 162 56l17 -26q-87 -63 -183 -63zM322 139q64 0 121 85l32 150q-7 28 -27 49.5t-51 21.5
q-64 0 -107.5 -67.5t-43.5 -143.5q0 -44 19.5 -69.5t56.5 -25.5z" />
    <glyph glyph-name="A" unicode="A" horiz-adv-x="512" 
d="M450 0h-83l-10 151h-238l-76 -151h-89l348 667h95zM356 222l-23 357l-181 -357h204z" />
    <glyph glyph-name="B" unicode="B" horiz-adv-x="517" 
d="M253 0h-237l147 667h198q69 0 111 -40.5t42 -103.5q0 -69 -40 -123t-101 -64q38 -11 60 -47.5t22 -79.5q0 -84 -53 -146.5t-149 -62.5zM313 377q57 0 86.5 41.5t29.5 92.5q0 39 -24.5 62t-64.5 23h-113l-48 -219h134zM248 71q57 0 91.5 42.5t34.5 100.5q0 44 -24 68
t-68 24h-119l-52 -235h137z" />
    <glyph glyph-name="C" unicode="C" horiz-adv-x="534" 
d="M273 -12q-101 0 -162 64t-61 177q0 109 39 211t113 170t165 68q78 0 128.5 -42.5t72.5 -113.5l-75 -22q-35 107 -132 107q-61 0 -115 -58t-83.5 -145t-29.5 -175q0 -81 38.5 -125.5t106.5 -44.5q72 0 136 81l61 -37q-84 -115 -202 -115z" />
    <glyph glyph-name="D" unicode="D" horiz-adv-x="565" 
d="M194 0h-178l147 667h174q87 0 148 -65.5t61 -177.5q0 -52 -11.5 -107.5t-38.5 -113t-66 -102t-100.5 -73t-135.5 -28.5zM227 596l-116 -525h97q61 0 111.5 34.5t81 87.5t47 113t16.5 116q0 80 -40 127t-102 47h-95z" />
    <glyph glyph-name="E" unicode="E" horiz-adv-x="462" 
d="M359 0h-343l147 667h343l-15 -71h-264l-48 -219h257l-16 -71h-257l-52 -235h264z" />
    <glyph glyph-name="F" unicode="F" horiz-adv-x="451" 
d="M96 0h-80l147 667h343l-15 -71h-264l-48 -219h257l-16 -71h-257z" />
    <glyph glyph-name="G" unicode="G" horiz-adv-x="564" 
d="M261 -12q-95 0 -153 64.5t-58 176.5q0 79 23.5 158.5t65 144.5t104.5 105.5t136 40.5q69 0 117.5 -41t68.5 -106l-70 -25q-16 46 -49.5 73.5t-77.5 27.5q-63 0 -118.5 -57.5t-86 -144.5t-30.5 -176q0 -79 37 -124.5t103 -45.5q70 0 120 60t75 152h-190l15 71h271
q-69 -354 -303 -354z" />
    <glyph glyph-name="H" unicode="H" horiz-adv-x="575" 
d="M451 0h-79l67 308h-276l-67 -308h-80l147 667h80l-64 -289h276l64 289h79z" />
    <glyph glyph-name="I" unicode="I" horiz-adv-x="220" 
d="M96 0h-80l147 667h80z" />
    <glyph glyph-name="J" unicode="J" horiz-adv-x="399" 
d="M118 -12q-102 0 -147 67l43 59q33 -55 99 -55q94 0 121 115l108 493h80l-110 -495q-41 -184 -194 -184z" />
    <glyph glyph-name="K" unicode="K" horiz-adv-x="510" 
d="M442 0h-89l-134 298l-77 -85l-46 -213h-80l147 667h80l-74 -336l302 336h100l-293 -316z" />
    <glyph glyph-name="L" unicode="L" horiz-adv-x="414" 
d="M332 0h-322l147 667h80l-132 -596h242z" />
    <glyph glyph-name="M" unicode="M" horiz-adv-x="684" 
d="M560 0h-79l120 540l-297 -540h-31l-58 540l-119 -540h-80l147 667h108l53 -491l271 491h112z" />
    <glyph glyph-name="N" unicode="N" horiz-adv-x="573" 
d="M449 0h-76l-164 512l-113 -512h-80l147 667h80l162 -501l112 501h79z" />
    <glyph glyph-name="O" unicode="O" horiz-adv-x="601" 
d="M273 -12q-101 0 -162 66t-61 175q0 77 22.5 156t62 144.5t100.5 107t132 41.5q100 0 161.5 -66.5t61.5 -175.5q0 -104 -37.5 -205.5t-112 -172t-167.5 -70.5zM278 59q62 0 116 57.5t83 144t29 175.5q0 80 -40 125.5t-105 45.5q-63 0 -116.5 -58t-82.5 -144.5t-29 -175.5
q0 -79 40 -124.5t105 -45.5z" />
    <glyph glyph-name="P" unicode="P" horiz-adv-x="488" 
d="M96 0h-80l147 667h192q67 0 110.5 -46.5t43.5 -115.5q0 -94 -59.5 -166t-173.5 -72h-121zM285 338h-2q67 0 105 48t38 113q0 44 -25.5 70.5t-65.5 26.5h-108l-57 -258h115z" />
    <glyph glyph-name="Q" unicode="Q" horiz-adv-x="601" 
d="M273 -12q-101 0 -162 66t-61 175q0 77 22.5 156t62 144.5t100.5 107t132 41.5q100 0 161.5 -66.5t61.5 -175.5q0 -111 -44.5 -220.5t-120.5 -170.5l24 -55l-63 -23l-18 42q-48 -21 -95 -21zM278 59q30 0 62 16l-55 129l63 23l46 -110q51 54 81.5 142t30.5 177
q0 80 -40 125.5t-105 45.5q-63 0 -116.5 -58t-82.5 -144.5t-29 -175.5q0 -79 40 -124.5t105 -45.5z" />
    <glyph glyph-name="R" unicode="R" horiz-adv-x="510" 
d="M411 0h-86l-70 267h-101l-58 -267h-80l147 667h185q68 0 115 -45t47 -117q0 -89 -50.5 -153.5t-127.5 -76.5zM284 337q66 0 104 48t38 114q0 45 -26.5 71t-64.5 26h-108l-57 -259h114z" />
    <glyph glyph-name="S" unicode="S" horiz-adv-x="472" 
d="M206 -12q-66 0 -122 26.5t-84 67.5l52 58q25 -37 67 -59t90 -22q58 0 92.5 37t34.5 91q0 33 -24.5 60.5t-59 49.5t-69 45.5t-59 60t-24.5 81.5q0 80 60 137t146 57q57 0 106 -21.5t77 -59.5l-50 -57q-49 67 -138 67q-50 0 -83.5 -33.5t-33.5 -78.5q0 -29 24.5 -55.5
t59 -48.5t69 -47t59 -62t24.5 -83q0 -87 -59 -149t-155 -62z" />
    <glyph glyph-name="T" unicode="T" horiz-adv-x="447" 
d="M209 0h-79l132 596h-159l15 71h397l-15 -71h-159z" />
    <glyph glyph-name="U" unicode="U" horiz-adv-x="569" 
d="M259 -12q-92 0 -146 49t-54 133q0 17 5 47l99 450h80l-100 -452q-4 -28 -4 -38q0 -54 33 -86t90 -32q62 0 97.5 38.5t53.5 117.5l99 452h80l-99 -451q-26 -113 -81.5 -170.5t-152.5 -57.5z" />
    <glyph glyph-name="V" unicode="V" horiz-adv-x="512" 
d="M250 0h-95l-54 667h83l36 -571l288 571h89z" />
    <glyph glyph-name="W" unicode="W" horiz-adv-x="717" 
d="M498 0h-85l8 526l-226 -526h-84l-2 667h84l-11 -543l235 543h66l-5 -543l229 543h87z" />
    <glyph glyph-name="X" unicode="X" horiz-adv-x="512" 
d="M450 0h-87l-98 273l-213 -273h-98l276 345l-118 322h88l89 -259l198 259h99l-262 -330z" />
    <glyph glyph-name="Y" unicode="Y" horiz-adv-x="501" 
d="M236 0h-79l62 282l-121 385h84l89 -308l225 308h93l-291 -385z" />
    <glyph glyph-name="Z" unicode="Z" horiz-adv-x="463" 
d="M369 0h-383l15 68l393 528h-276l15 71h376l-14 -66l-395 -530h284z" />
    <glyph glyph-name="bracketleft" unicode="[" horiz-adv-x="212" 
d="M98 -190h-157l192 868h158l-12 -53h-102l-168 -762h101z" />
    <glyph glyph-name="backslash" unicode="\" horiz-adv-x="248" 
d="M133 -20l-40 707h57l40 -707h-57z" />
    <glyph glyph-name="bracketright" unicode="]" horiz-adv-x="212" 
d="M78 -190h-157l12 53h101l169 762h-102l12 53h158z" />
    <glyph glyph-name="asciicircum" unicode="^" horiz-adv-x="381" 
d="M381 333h-56l-51 277l-175 -277h-61l218 334h55z" />
    <glyph glyph-name="underscore" unicode="_" horiz-adv-x="422" 
d="M349 -93h-426l12 53h427z" />
    <glyph glyph-name="grave" unicode="`" horiz-adv-x="186" 
d="M255 556h-51l-103 144h73z" />
    <glyph glyph-name="a" unicode="a" horiz-adv-x="452" 
d="M340 0h-72l11 50q-52 -62 -124 -62q-57 0 -95.5 33.5t-38.5 95.5q0 81 48 136t118 55q90 0 133 -70l19 85q4 15 4 35q0 35 -27 56t-72 21q-64 0 -121 -51l-21 53q70 58 156 58q70 0 115 -31t45 -90q0 -18 -7 -49zM184 40q62 0 105 58l22 94q-27 64 -106 64
q-49 0 -79 -40.5t-30 -91.5q0 -41 24 -62.5t64 -21.5z" />
    <glyph glyph-name="b" unicode="b" horiz-adv-x="481" 
d="M228 -12q-92 0 -129 85l-16 -73h-71l147 667h71l-55 -250q54 78 131 78q66 0 104 -45t38 -126q0 -73 -24.5 -148.5t-77 -131.5t-118.5 -56zM217 52q46 0 83 45t55 104t18 113q0 56 -25.5 86.5t-70.5 30.5q-33 0 -64.5 -23.5t-52.5 -57.5l-48 -218q11 -35 39.5 -57.5
t65.5 -22.5z" />
    <glyph glyph-name="c" unicode="c" horiz-adv-x="407" 
d="M211 -12q-81 0 -129.5 50t-48.5 141q0 75 29 146.5t86 120.5t127 49q96 0 140 -70l-46 -46q-29 52 -92 52q-75 0 -122.5 -80.5t-47.5 -169.5q0 -64 31 -96.5t83 -32.5q55 0 93 45l29 -52q-55 -57 -132 -57z" />
    <glyph glyph-name="d" unicode="d" horiz-adv-x="481" 
d="M252 495q43 0 77 -22t52 -63l56 257h72l-148 -667h-72l15 66q-54 -78 -131 -78q-65 0 -103.5 45.5t-38.5 125.5q0 73 25 148.5t77.5 131.5t118.5 56zM263 431q-46 0 -83 -45t-55 -104t-18 -113q0 -56 25 -86.5t70 -30.5q34 0 65.5 23.5t51.5 57.5l49 218
q-11 35 -39.5 57.5t-65.5 22.5z" />
    <glyph glyph-name="e" unicode="e" horiz-adv-x="469" 
d="M221 -12q-88 0 -138.5 50.5t-50.5 140.5q0 50 16.5 104t46 102t76 79t100.5 31q77 0 122 -48t45 -133q0 -48 -14 -96h-316q-4 -19 -4 -45q0 -54 31.5 -89.5t92.5 -35.5q63 0 113 50l28 -48q-65 -62 -148 -62zM362 272h4q5 23 5 45q0 52 -27.5 85t-78.5 33
q-55 0 -95.5 -50t-52.5 -113h245z" />
    <glyph glyph-name="f" unicode="f" horiz-adv-x="253" 
d="M101 0h-72l93 420h-64l14 63h64l12 58q30 136 138 136q41 0 69 -17l-28 -58q-14 11 -36 11q-55 0 -71 -72l-13 -58h82l-14 -63h-81z" />
    <glyph glyph-name="g" unicode="g" horiz-adv-x="481" 
d="M156 -196q-117 0 -174 69l45 55q38 -60 129 -60q101 0 132 129l18 77q-54 -78 -134 -78q-63 0 -101.5 43t-38.5 127q0 71 23.5 144.5t75.5 129t120 55.5q39 0 75.5 -23.5t54.5 -61.5l16 73h71l-109 -486q-43 -193 -203 -193zM202 59q32 0 64 22.5t54 56.5l47 213
q-12 34 -42 57t-66 23q-66 0 -109 -84t-43 -171q0 -57 25.5 -87t69.5 -30z" />
    <glyph glyph-name="h" unicode="h" horiz-adv-x="466" 
d="M346 0h-72l76 344q5 18 5 29q0 58 -70 58q-61 0 -124 -79l-78 -352h-71l147 667h71l-55 -251q69 79 144 79q52 0 82 -25.5t30 -71.5q0 -11 -5 -36z" />
    <glyph glyph-name="i" unicode="i" horiz-adv-x="203" 
d="M175 553q-19 0 -32 12.5t-13 29.5q0 25 17.5 40.5t37.5 15.5q19 0 32 -12.5t13 -30.5q0 -25 -17 -40t-38 -15zM83 0h-71l107 483h71z" />
    <glyph glyph-name="j" unicode="j" horiz-adv-x="203" 
d="M-63 -196q-64 0 -89 38l37 52q15 -26 47 -26q49 0 66 73l121 542h71l-120 -542q-16 -71 -47 -104t-86 -33zM175 553q-19 0 -32 12.5t-13 29.5q0 25 17.5 40.5t37.5 15.5q19 0 32 -12.5t13 -30.5q0 -25 -17 -40t-38 -15z" />
    <glyph glyph-name="k" unicode="k" horiz-adv-x="439" 
d="M370 0h-81l-87 221l-90 -90l-29 -131h-71l147 667h71l-97 -441l256 257h87l-217 -217z" />
    <glyph glyph-name="l" unicode="l" horiz-adv-x="238" 
d="M126 -12q-46 0 -71.5 19.5t-25.5 56.5q0 17 4 36l126 567h71l-123 -555q0 -2 -1.5 -11t-1.5 -14q0 -35 39 -35q22 0 39 15l9 -57q-27 -22 -65 -22z" />
    <glyph glyph-name="m" unicode="m" horiz-adv-x="693" 
d="M573 0h-72l77 347q4 20 4 26q0 28 -16.5 43t-44.5 15q-29 0 -60.5 -23t-54.5 -56l-78 -352h-72l77 347q4 22 4 29q0 55 -61 55q-56 0 -115 -79l-78 -352h-71l107 483h71l-15 -67q60 79 135 79q47 0 74.5 -26t27.5 -56v-7q66 89 143 89q45 0 74 -25.5t29 -70.5
q0 -10 -5 -37z" />
    <glyph glyph-name="n" unicode="n" horiz-adv-x="466" 
d="M346 0h-72l76 343q5 23 5 30q0 58 -70 58q-63 0 -124 -79l-78 -352h-71l107 483h71l-15 -67q69 79 144 79q52 0 82 -25.5t30 -71.5q0 -14 -5 -36z" />
    <glyph glyph-name="o" unicode="o" horiz-adv-x="478" 
d="M206 -12q-81 0 -127.5 49.5t-46.5 136.5q0 75 28 147.5t84.5 123t126.5 50.5q81 0 127 -49.5t46 -136.5q0 -75 -28 -147.5t-84.5 -123t-125.5 -50.5zM209 52q46 0 84 43.5t57.5 101.5t19.5 111q0 60 -27 91.5t-76 31.5q-46 0 -84 -43.5t-57 -101.5t-19 -111
q0 -60 27 -91.5t75 -31.5z" />
    <glyph glyph-name="p" unicode="p" horiz-adv-x="479" 
d="M228 -12q-92 0 -129 85l-57 -257h-71l148 667h71l-15 -66q54 78 131 78q66 0 104 -45t38 -126q0 -73 -24.5 -148.5t-77 -131.5t-118.5 -56zM217 52q46 0 83 45t55 104t18 113q0 56 -25.5 86.5t-70.5 30.5q-33 0 -64.5 -23.5t-52.5 -57.5l-48 -218q11 -35 39.5 -57.5
t65.5 -22.5z" />
    <glyph glyph-name="q" unicode="q" horiz-adv-x="479" 
d="M252 495q43 0 77 -22t52 -63l15 73h72l-148 -667h-72l56 250q-54 -78 -131 -78q-65 0 -103.5 45.5t-38.5 125.5q0 73 25 148.5t77.5 131.5t118.5 56zM263 431q-46 0 -83 -45t-55 -104t-18 -113q0 -56 25 -86.5t70 -30.5q34 0 65.5 23.5t51.5 57.5l49 218
q-11 35 -39.5 57.5t-65.5 22.5z" />
    <glyph glyph-name="r" unicode="r" horiz-adv-x="291" 
d="M83 0h-71l107 483h71l-16 -71q61 81 155 81l-17 -74q-12 4 -30 4q-35 0 -68 -22.5t-55 -58.5z" />
    <glyph glyph-name="s" unicode="s" horiz-adv-x="388" 
d="M159 -12q-115 0 -166 76l45 48q17 -28 50.5 -47t73.5 -19q42 0 69 25.5t27 59.5q0 24 -20 44t-48.5 36t-57 33t-48.5 44t-20 61q0 61 44 103.5t118 42.5q48 0 88.5 -19t62.5 -50l-42 -47q-13 24 -45 41t-67 17q-39 0 -63.5 -21t-24.5 -54q0 -22 20 -41t48.5 -34.5
t57.5 -33t49 -45.5t20 -63q0 -65 -47 -111t-124 -46z" />
    <glyph glyph-name="t" unicode="t" horiz-adv-x="263" 
d="M140 -12q-96 0 -96 79q0 13 3 33l72 320h-64l14 63h64l29 132h72l-29 -132h81l-14 -63h-81l-69 -308q-3 -12 -3 -24q0 -36 39 -36q23 0 38 15l10 -57q-27 -22 -66 -22z" />
    <glyph glyph-name="u" unicode="u" horiz-adv-x="465" 
d="M118 483h72l-76 -343q-4 -18 -4 -30q0 -58 69 -58q65 0 123 77l79 354h72l-107 -483h-72l15 67q-69 -79 -144 -79q-51 0 -81 25.5t-30 71.5q0 21 5 36z" />
    <glyph glyph-name="v" unicode="v" horiz-adv-x="409" 
d="M190 0h-79l-52 483h75l32 -397l210 397h80z" />
    <glyph glyph-name="w" unicode="w" horiz-adv-x="639" 
d="M443 0h-73l-19 388l-189 -388h-73l-23 483h72l10 -386l188 386h67l17 -386l182 386h78z" />
    <glyph glyph-name="x" unicode="x" horiz-adv-x="407" 
d="M341 0h-77l-69 194l-154 -194h-83l202 246l-87 237h77l62 -184l145 184h83l-193 -237z" />
    <glyph glyph-name="y" unicode="y" horiz-adv-x="465" 
d="M141 -196q-119 0 -174 69l45 55q38 -60 129 -60q102 0 132 129l17 78q-72 -78 -143 -78q-50 0 -80.5 24.5t-30.5 71.5q0 16 4 36l79 354h71l-74 -335q-4 -15 -4 -30q0 -58 69 -58q33 0 66 22.5t57 55.5l77 345h72l-108 -486q-43 -193 -204 -193z" />
    <glyph glyph-name="z" unicode="z" horiz-adv-x="388" 
d="M291 0h-302l12 56l288 364h-207l14 63h298l-12 -55l-289 -365h211z" />
    <glyph glyph-name="braceleft" unicode="{" horiz-adv-x="231" 
d="M117 -190h-36q-39 0 -68 26t-29 67q0 14 4 28l48 219q3 18 3 19q0 22 -10.5 36.5t-28.5 14.5l11 48q53 0 67 70l49 221q13 59 49 89t88 30h46l-12 -53h-46q-54 0 -69 -66l-51 -233q-16 -70 -65 -88q29 -14 29 -54q0 -18 -4 -34l-48 -219q-2 -12 -2 -19q0 -22 13 -35.5
t32 -13.5h42z" />
    <glyph glyph-name="bar" unicode="|" horiz-adv-x="194" 
d="M144 -20h-54v707h54v-707z" />
    <glyph glyph-name="braceright" unicode="}" horiz-adv-x="231" 
d="M113 678h36q39 0 68 -26t29 -68q0 -9 -3 -27l-49 -219q-2 -12 -2 -19q0 -23 10 -37t29 -14l-11 -48q-52 0 -68 -70l-49 -221q-13 -59 -49 -89t-88 -30h-46l12 53h46q54 0 69 66l51 233q16 70 65 88q-29 15 -29 54q0 18 4 34l48 219q2 12 2 19q0 22 -13 35.5t-32 13.5h-42
z" />
    <glyph glyph-name="asciitilde" unicode="~" horiz-adv-x="449" 
d="M461 667l53 -5q-52 -238 -166 -238q-34 0 -52 19.5t-22.5 48t-6.5 56.5t-10 47.5t-28 19.5q-63 0 -108 -192l-53 6q52 237 165 237q29 0 47 -14t23.5 -35.5t9 -46.5t5 -46.5t10 -35.5t24.5 -14q64 0 109 193z" />
    <glyph glyph-name="uni00A0" unicode="&#xa0;" horiz-adv-x="215" 
 />
    <glyph glyph-name="exclamdown" unicode="&#xa1;" horiz-adv-x="228" 
d="M96 298h60l-92 -482h-89zM162 493q20 0 34.5 -14.5t14.5 -34.5q0 -24 -17.5 -41t-41.5 -17q-20 0 -34 14.5t-14 35.5q0 24 17 40.5t41 16.5z" />
    <glyph glyph-name="cent" unicode="&#xa2;" horiz-adv-x="407" 
d="M211 -12h-8l-19 -88h-57l21 97q-54 17 -84.5 63.5t-30.5 118.5q0 112 64 209t162 106l16 71h57l-17 -74q66 -13 100 -66l-46 -46q-23 41 -68 49l-83 -376h3q55 0 93 45l29 -52q-55 -57 -132 -57zM107 181q0 -86 56 -116l81 361q-62 -18 -99.5 -92.5t-37.5 -152.5z" />
    <glyph glyph-name="sterling" unicode="&#xa3;" horiz-adv-x="450" 
d="M30 270l11 52h93q-2 6 -12 27t-13.5 31.5t-8 30t-4.5 38.5q0 92 64 160t152 68q63 0 110.5 -32.5t57.5 -87.5l-70 -27q-7 36 -32.5 58t-64.5 22q-53 0 -92.5 -48t-39.5 -120q0 -22 6 -42t16.5 -43.5t14.5 -34.5h111l-12 -52h-89q0 -55 -32.5 -106t-74.5 -78q24 9 41 9
q28 0 69 -18.5t63 -18.5q45 0 80 37l17 -63q-45 -45 -106 -45q-41 0 -90 22t-80 22q-41 0 -97 -38l-16 59q62 29 105.5 85t43.5 112q0 7 -2 21h-119z" />
    <glyph glyph-name="yen" unicode="&#xa5;" horiz-adv-x="501" 
d="M239 0h-79l27 123h-192l11 51h192l24 108h-192l11 51h165l-105 334h84l89 -308l225 308h93l-253 -334h159l-11 -51h-186l-24 -108h185l-11 -51h-185z" />
    <glyph glyph-name="brokenbar" unicode="&#xa6;" horiz-adv-x="194" 
d="M144 -20h-54v316h54v-316zM144 371h-54v316h54v-316z" />
    <glyph glyph-name="section" unicode="&#xa7;" horiz-adv-x="390" 
d="M368 323q0 -49 -29 -87t-84 -56q58 -39 58 -103q0 -65 -46.5 -111.5t-120.5 -46.5q-120 0 -175 72l45 45q41 -62 128 -62q42 0 69.5 27t27.5 66q0 25 -19.5 45t-48 35t-56.5 31.5t-47.5 44t-19.5 63.5q0 50 34 88t95 47q-74 44 -74 112q0 60 44.5 102t113.5 42
q108 0 161 -67l-43 -40q-38 53 -115 53q-39 0 -65 -23.5t-26 -57.5q0 -25 20 -45t48.5 -35t56.5 -32t48 -44t20 -63zM297 308q0 50 -65 85q-57 -8 -84.5 -34t-27.5 -60q0 -52 87 -92q90 28 90 101z" />
    <glyph glyph-name="dieresis" unicode="&#xa8;" horiz-adv-x="268" 
d="M346 609q0 -20 -15.5 -35t-35.5 -15q-17 0 -28.5 11.5t-11.5 28.5q0 20 15.5 35t35.5 15q16 0 28 -11.5t12 -28.5zM171 609q0 -20 -15 -35t-35 -15q-17 0 -28.5 11.5t-11.5 28.5q0 19 15.5 34.5t34.5 15.5q17 0 28.5 -11.5t11.5 -28.5z" />
    <glyph glyph-name="copyright" unicode="&#xa9;" horiz-adv-x="778" 
d="M754 334q0 -143 -101.5 -244t-244.5 -101q-142 0 -243 101t-101 244t100.5 244t243.5 101t244.5 -101t101.5 -244zM724 334q0 130 -93 222.5t-223 92.5q-129 0 -221.5 -92.5t-92.5 -222.5q0 -129 92.5 -222t221.5 -93q130 0 223 93t93 222zM505 201l19 -28
q-62 -52 -134 -52q-88 0 -140 53t-52 133q0 100 72 170.5t164 70.5q108 0 155 -80l-30 -21q-36 68 -126 68q-75 0 -137 -60t-62 -147q0 -65 43.5 -110t112.5 -45q67 0 115 48z" />
    <glyph glyph-name="ordfeminine" unicode="&#xaa;" horiz-adv-x="351" 
d="M243 603q-43 0 -73.5 -51.5t-30.5 -109.5q0 -38 17 -58.5t47 -20.5q41 0 78 51l31 142q-7 20 -26.5 33.5t-42.5 13.5zM331 640h55l-69 -314h-56l10 45q-39 -53 -91 -53q-44 0 -71.5 30.5t-27.5 89.5q0 78 43 144t107 66q63 0 90 -52z" />
    <glyph glyph-name="guillemotleft" unicode="&#xab;" horiz-adv-x="382" 
d="M178 63h-64l-85 180l165 177h70l-169 -181zM308 63h-64l-85 180l165 177h70l-169 -181z" />
    <glyph glyph-name="logicalnot" unicode="&#xac;" horiz-adv-x="441" 
d="M456 456l-54 -244h-53l43 193h-328l12 51h380z" />
    <glyph glyph-name="registered" unicode="&#xae;" horiz-adv-x="494" 
d="M508 465q0 -88 -62.5 -150t-150.5 -62t-149.5 62t-61.5 150t62 150t150 62t150 -61.5t62 -150.5zM479 465q0 77 -53.5 130t-130.5 53t-129.5 -53t-52.5 -130q0 -76 53 -129.5t129 -53.5t130 53.5t54 129.5zM367 343h-38l-42 96h-46l-21 -96h-32l53 243h92q30 0 50 -17.5
t20 -46.5q0 -35 -25 -58.5t-55 -23.5zM369 518q0 19 -11.5 29.5t-29.5 10.5h-61l-20 -90h68q23 0 38.5 14.5t15.5 35.5z" />
    <glyph glyph-name="macron" unicode="&#xaf;" horiz-adv-x="306" 
d="M382 591h-305l10 46h305z" />
    <glyph glyph-name="degree" unicode="&#xb0;" horiz-adv-x="289" 
d="M334 555q0 -50 -35.5 -85t-85.5 -35t-85.5 35t-35.5 85t35.5 86t85.5 36t85.5 -36t35.5 -86zM288 555q0 31 -22 53t-53 22t-52.5 -22t-21.5 -53q0 -30 21 -51.5t52 -21.5t53.5 21.5t22.5 51.5z" />
    <glyph glyph-name="plusminus" unicode="&#xb1;" 
d="M425 318h-162l-41 -184h-55l41 184h-163l11 51h163l39 177h55l-39 -177h163zM360 22h-380l10 51h381z" />
    <glyph glyph-name="twosuperior" unicode="&#xb2;" horiz-adv-x="327" 
d="M331 421h-251l10 47q161 126 199 166q47 49 47 89q0 27 -19 41.5t-47 14.5q-57 0 -95 -47l-29 38q52 57 126 57q51 0 87.5 -26t36.5 -74q0 -29 -13.5 -56t-52 -64.5t-66 -60t-96.5 -77.5h173z" />
    <glyph glyph-name="threesuperior" unicode="&#xb3;" horiz-adv-x="327" 
d="M358 539q0 -47 -37 -86t-97 -39q-48 0 -83.5 19t-52.5 53l42 32q28 -56 91 -56q37 0 58 26t21 60q0 26 -20.5 40.5t-52.5 14.5q-23 0 -29 -1l11 48q9 -1 45 -1t58.5 20t22.5 55q0 25 -20 40t-50 15q-50 0 -91 -44l-28 36q51 56 123 56q55 0 90 -25t35 -71
q0 -40 -27.5 -71.5t-72.5 -37.5q28 -7 46 -29.5t18 -53.5z" />
    <glyph glyph-name="acute" unicode="&#xb4;" horiz-adv-x="186" 
d="M287 700l-167 -144h-53l146 144h74z" />
    <glyph glyph-name="mu" unicode="&#xb5;" horiz-adv-x="465" 
d="M42 -184h-71l148 667h71l-76 -344q-19 -89 57 -89q34 0 70.5 22.5t60.5 54.5l79 356h72l-107 -483h-72l14 65q-30 -33 -72.5 -55t-84.5 -22q-25 0 -50 7z" />
    <glyph glyph-name="paragraph" unicode="&#xb6;" horiz-adv-x="449" 
d="M299 -100h-43l161 723h-90l-161 -723h-44l94 423q-57 0 -97 44.5t-40 111.5q0 73 56.5 130.5t137.5 57.5h196z" />
    <glyph glyph-name="periodcentered" unicode="&#xb7;" horiz-adv-x="229" 
d="M109 191q-20 0 -34 14.5t-14 34.5q0 24 17 41t41 17q20 0 34.5 -14.5t14.5 -34.5q0 -24 -17.5 -41t-41.5 -17z" />
    <glyph glyph-name="cedilla" unicode="&#xb8;" horiz-adv-x="185" 
d="M6 -191q-59 0 -95 38l26 34q27 -33 71 -33q25 0 40 14t15 34q0 29 -31 29q-17 0 -31 -16l-28 18l49 84h44l-41 -66q13 10 29 10q24 0 38.5 -15.5t14.5 -41.5q0 -38 -29 -63.5t-72 -25.5z" />
    <glyph glyph-name="onesuperior" unicode="&#xb9;" horiz-adv-x="225" 
d="M208 421h-59l71 321l-74 -63l-28 37l127 105h51z" />
    <glyph glyph-name="ordmasculine" unicode="&#xba;" horiz-adv-x="348" 
d="M207 318q-58 0 -91 34.5t-33 93.5q0 74 46.5 138t116.5 64q58 0 91 -34.5t33 -93.5q0 -74 -46.5 -138t-116.5 -64zM208 365q47 0 76 52t29 105q0 37 -18.5 57.5t-50.5 20.5q-47 0 -75.5 -52t-28.5 -104q0 -37 18 -58t50 -21z" />
    <glyph glyph-name="guillemotright" unicode="&#xbb;" horiz-adv-x="382" 
d="M75 420h64l85 -180l-165 -177h-70l169 182zM205 420h64l85 -180l-165 -177h-70l169 182z" />
    <glyph glyph-name="onequarter" unicode="&#xbc;" horiz-adv-x="673" 
d="M609 667l-497 -667h-47l496 667h48zM615 101h-47l-22 -101h-57l22 101h-169l10 45l207 254h75l-56 -252h47zM521 148l42 189l-156 -189h114zM174 267h-59l71 321l-74 -63l-28 37l127 105h51z" />
    <glyph glyph-name="onehalf" unicode="&#xbd;" horiz-adv-x="708" 
d="M609 667l-497 -667h-47l496 667h48zM619 0h-251l10 47q161 126 199 166q47 49 47 89q0 27 -19 41.5t-47 14.5q-57 0 -95 -47l-29 38q52 57 126 57q51 0 87.5 -26t36.5 -74q0 -29 -13.5 -56t-52 -64.5t-66 -60t-96.5 -77.5h173zM174 267h-59l71 321l-74 -63l-28 37
l127 105h51z" />
    <glyph glyph-name="threequarters" unicode="&#xbe;" horiz-adv-x="746" 
d="M682 667l-497 -667h-47l496 667h48zM688 101h-47l-22 -101h-57l22 101h-169l10 45l207 254h75l-56 -252h47zM594 148l42 189l-156 -189h114zM324 385q0 -47 -37 -86t-97 -39q-48 0 -83.5 19t-52.5 53l42 32q28 -56 91 -56q37 0 58 26t21 60q0 26 -20.5 40.5t-52.5 14.5
q-23 0 -29 -1l11 48q9 -1 45 -1t58.5 20t22.5 55q0 25 -20 40t-50 15q-50 0 -91 -44l-28 36q51 56 123 56q55 0 90 -25t35 -71q0 -40 -27.5 -71.5t-72.5 -37.5q28 -7 46 -29.5t18 -53.5z" />
    <glyph glyph-name="questiondown" unicode="&#xbf;" horiz-adv-x="333" 
d="M166 273l65 26q17 -28 17 -67t-21 -71t-50.5 -53.5t-59.5 -42.5t-51 -49t-21 -62t25 -56.5t69 -22.5q63 0 111 45l30 -54q-68 -61 -155 -61q-72 0 -117.5 38t-45.5 95q0 45 22.5 82t54.5 61.5t63.5 46t54 47.5t22.5 55q0 24 -13 43zM244 493q20 0 34.5 -14.5t14.5 -34.5
q0 -24 -17.5 -41t-41.5 -17q-20 0 -34.5 14.5t-14.5 34.5q0 24 17.5 41t41.5 17z" />
    <glyph glyph-name="Agrave" unicode="&#xc0;" horiz-adv-x="512" 
d="M422 728h-51l-103 144h73zM450 0h-83l-10 151h-238l-76 -151h-89l348 667h95zM356 222l-23 357l-181 -357h204z" />
    <glyph glyph-name="Aacute" unicode="&#xc1;" horiz-adv-x="512" 
d="M524 872l-167 -144h-53l146 144h74zM450 0h-83l-10 151h-238l-76 -151h-89l348 667h95zM356 222l-23 357l-181 -357h204z" />
    <glyph glyph-name="Acircumflex" unicode="&#xc2;" horiz-adv-x="512" 
d="M481 728h-44l-49 105l-92 -105h-48l112 144h70zM450 0h-83l-10 151h-238l-76 -151h-89l348 667h95zM356 222l-23 357l-181 -357h204z" />
    <glyph glyph-name="Atilde" unicode="&#xc3;" horiz-adv-x="512" 
d="M418 726q-23 0 -36.5 14.5t-17.5 32.5t-13.5 32.5t-25.5 14.5q-37 0 -56 -88h-43q28 134 106 134q23 0 36 -14.5t17.5 -32.5t14 -32.5t25.5 -14.5q36 0 56 88h43q-28 -134 -106 -134zM450 0h-83l-10 151h-238l-76 -151h-89l348 667h95zM356 222l-23 357l-181 -357h204z
" />
    <glyph glyph-name="Adieresis" unicode="&#xc4;" horiz-adv-x="512" 
d="M506 778q0 -20 -15.5 -35t-35.5 -15q-17 0 -28.5 11.5t-11.5 28.5q0 20 15.5 35t35.5 15q16 0 28 -12t12 -28zM331 778q0 -20 -15 -35t-35 -15q-17 0 -28.5 11.5t-11.5 28.5q0 20 15.5 35t34.5 15q17 0 28.5 -11.5t11.5 -28.5zM450 0h-83l-10 151h-238l-76 -151h-89
l348 667h95zM356 222l-23 357l-181 -357h204z" />
    <glyph glyph-name="Aring" unicode="&#xc5;" horiz-adv-x="512" 
d="M365 692q-36 0 -58.5 23.5t-22.5 59.5q0 40 30 70t70 30q36 0 58.5 -23.5t22.5 -59.5q0 -40 -29.5 -70t-70.5 -30zM368 730q24 0 42 17.5t18 41.5q0 21 -13 34.5t-34 13.5q-24 0 -41.5 -17.5t-17.5 -41.5q0 -20 13 -34t33 -14zM450 0h-83l-10 151h-238l-76 -151h-89
l348 667h95zM356 222l-23 357l-181 -357h204z" />
    <glyph glyph-name="AE" unicode="&#xc6;" horiz-adv-x="752" 
d="M650 0h-343l32 151h-191l-102 -151h-89l464 667h376l-15 -71h-264l-49 -219h257l-16 -71h-257l-52 -235h264zM355 222l78 350l-240 -350h162z" />
    <glyph glyph-name="Ccedilla" unicode="&#xc7;" horiz-adv-x="534" 
d="M273 -12h-10l-26 -43q13 10 29 10q24 0 38.5 -15.5t14.5 -41.5q0 -38 -29 -63.5t-72 -25.5q-59 0 -95 38l26 34q27 -33 71 -33q25 0 40 14t15 34q0 29 -31 29q-17 0 -31 -16l-28 18l38 66q-80 14 -126.5 76t-46.5 160q0 109 39 211t113 170t165 68q78 0 128.5 -42.5
t72.5 -113.5l-75 -22q-35 107 -132 107q-61 0 -115 -58t-83.5 -145t-29.5 -175q0 -81 38.5 -125.5t106.5 -44.5q72 0 136 81l61 -37q-84 -115 -202 -115z" />
    <glyph glyph-name="Egrave" unicode="&#xc8;" horiz-adv-x="462" 
d="M409 728h-51l-103 144h73zM359 0h-343l147 667h343l-15 -71h-264l-48 -219h257l-16 -71h-257l-52 -235h264z" />
    <glyph glyph-name="Eacute" unicode="&#xc9;" horiz-adv-x="462" 
d="M510 872l-167 -144h-53l146 144h74zM359 0h-343l147 667h343l-15 -71h-264l-48 -219h257l-16 -71h-257l-52 -235h264z" />
    <glyph glyph-name="Ecircumflex" unicode="&#xca;" horiz-adv-x="462" 
d="M466 728h-44l-49 105l-92 -105h-48l112 144h70zM359 0h-343l147 667h343l-15 -71h-264l-48 -219h257l-16 -71h-257l-52 -235h264z" />
    <glyph glyph-name="Edieresis" unicode="&#xcb;" horiz-adv-x="462" 
d="M492 778q0 -20 -15.5 -35t-35.5 -15q-17 0 -28.5 11.5t-11.5 28.5q0 20 15.5 35t35.5 15q16 0 28 -12t12 -28zM317 778q0 -20 -15 -35t-35 -15q-17 0 -28.5 11.5t-11.5 28.5q0 20 15.5 35t34.5 15q17 0 28.5 -11.5t11.5 -28.5zM359 0h-343l147 667h343l-15 -71h-264
l-48 -219h257l-16 -71h-257l-52 -235h264z" />
    <glyph glyph-name="Igrave" unicode="&#xcc;" horiz-adv-x="220" 
d="M275 728h-51l-103 144h73zM96 0h-80l147 667h80z" />
    <glyph glyph-name="Iacute" unicode="&#xcd;" horiz-adv-x="220" 
d="M378 872l-167 -144h-53l146 144h74zM96 0h-80l147 667h80z" />
    <glyph glyph-name="Icircumflex" unicode="&#xce;" horiz-adv-x="220" 
d="M334 728h-44l-49 105l-92 -105h-48l112 144h70zM96 0h-80l147 667h80z" />
    <glyph glyph-name="Idieresis" unicode="&#xcf;" horiz-adv-x="220" 
d="M361 778q0 -20 -15.5 -35t-35.5 -15q-17 0 -28.5 11.5t-11.5 28.5q0 20 15.5 35t35.5 15q17 0 28.5 -12t11.5 -28zM186 778q0 -20 -15 -35t-35 -15q-17 0 -28.5 11.5t-11.5 28.5q0 20 15 35t35 15q17 0 28.5 -11.5t11.5 -28.5zM96 0h-80l147 667h80z" />
    <glyph glyph-name="Eth" unicode="&#xd0;" horiz-adv-x="589" 
d="M218 0h-178l66 301h-78l15 66h78l66 300h174q87 0 148 -65.5t61 -177.5q0 -52 -11.5 -107.5t-38.5 -113t-66 -102t-100.5 -73t-135.5 -28.5zM312 301h-126l-51 -230h97q61 0 111.5 34.5t81 87.5t47 113t16.5 116q0 80 -40 127t-102 47h-95l-51 -229h127z" />
    <glyph glyph-name="Ntilde" unicode="&#xd1;" horiz-adv-x="573" 
d="M449 726q-23 0 -36.5 14.5t-17.5 32.5t-13.5 32.5t-25.5 14.5q-37 0 -56 -88h-43q28 134 106 134q23 0 36 -14.5t17.5 -32.5t14 -32.5t25.5 -14.5q36 0 56 88h43q-28 -134 -106 -134zM449 0h-76l-164 512l-113 -512h-80l147 667h80l162 -501l112 501h79z" />
    <glyph glyph-name="Ograve" unicode="&#xd2;" horiz-adv-x="601" 
d="M467 728h-51l-103 144h73zM273 -12q-101 0 -162 66t-61 175q0 77 22.5 156t62 144.5t100.5 107t132 41.5q100 0 161.5 -66.5t61.5 -175.5q0 -104 -37.5 -205.5t-112 -172t-167.5 -70.5zM278 59q62 0 116 57.5t83 144t29 175.5q0 80 -40 125.5t-105 45.5q-63 0 -116.5 -58
t-82.5 -144.5t-29 -175.5q0 -79 40 -124.5t105 -45.5z" />
    <glyph glyph-name="Oacute" unicode="&#xd3;" horiz-adv-x="601" 
d="M568 872l-167 -144h-53l146 144h74zM273 -12q-101 0 -162 66t-61 175q0 77 22.5 156t62 144.5t100.5 107t132 41.5q100 0 161.5 -66.5t61.5 -175.5q0 -104 -37.5 -205.5t-112 -172t-167.5 -70.5zM278 59q62 0 116 57.5t83 144t29 175.5q0 80 -40 125.5t-105 45.5
q-63 0 -116.5 -58t-82.5 -144.5t-29 -175.5q0 -79 40 -124.5t105 -45.5z" />
    <glyph glyph-name="Ocircumflex" unicode="&#xd4;" horiz-adv-x="601" 
d="M525 728h-44l-49 105l-92 -105h-48l112 144h70zM273 -12q-101 0 -162 66t-61 175q0 77 22.5 156t62 144.5t100.5 107t132 41.5q100 0 161.5 -66.5t61.5 -175.5q0 -104 -37.5 -205.5t-112 -172t-167.5 -70.5zM278 59q62 0 116 57.5t83 144t29 175.5q0 80 -40 125.5
t-105 45.5q-63 0 -116.5 -58t-82.5 -144.5t-29 -175.5q0 -79 40 -124.5t105 -45.5z" />
    <glyph glyph-name="Otilde" unicode="&#xd5;" horiz-adv-x="601" 
d="M466 726q-23 0 -36.5 14.5t-17.5 32.5t-13.5 32.5t-25.5 14.5q-37 0 -56 -88h-43q28 134 106 134q23 0 36 -14.5t17.5 -32.5t14 -32.5t25.5 -14.5q36 0 56 88h43q-28 -134 -106 -134zM273 -12q-101 0 -162 66t-61 175q0 77 22.5 156t62 144.5t100.5 107t132 41.5
q100 0 161.5 -66.5t61.5 -175.5q0 -104 -37.5 -205.5t-112 -172t-167.5 -70.5zM278 59q62 0 116 57.5t83 144t29 175.5q0 80 -40 125.5t-105 45.5q-63 0 -116.5 -58t-82.5 -144.5t-29 -175.5q0 -79 40 -124.5t105 -45.5z" />
    <glyph glyph-name="Odieresis" unicode="&#xd6;" horiz-adv-x="601" 
d="M550 778q0 -20 -15.5 -35t-35.5 -15q-17 0 -28.5 11.5t-11.5 28.5q0 20 15.5 35t35.5 15q16 0 28 -12t12 -28zM375 778q0 -20 -15 -35t-35 -15q-17 0 -28.5 11.5t-11.5 28.5q0 20 15.5 35t34.5 15q17 0 28.5 -11.5t11.5 -28.5zM273 -12q-101 0 -162 66t-61 175
q0 77 22.5 156t62 144.5t100.5 107t132 41.5q100 0 161.5 -66.5t61.5 -175.5q0 -104 -37.5 -205.5t-112 -172t-167.5 -70.5zM278 59q62 0 116 57.5t83 144t29 175.5q0 80 -40 125.5t-105 45.5q-63 0 -116.5 -58t-82.5 -144.5t-29 -175.5q0 -79 40 -124.5t105 -45.5z" />
    <glyph glyph-name="multiply" unicode="&#xd7;" 
d="M332 172l-98 126l-157 -129l-32 39l159 129l-99 126l41 33l97 -126l158 129l32 -39l-158 -129l98 -126z" />
    <glyph glyph-name="Oslash" unicode="&#xd8;" horiz-adv-x="601" 
d="M273 -12q-90 0 -149 53l-31 -41h-59l59 77q-43 61 -43 152q0 77 22.5 156t62 144.5t100.5 107t132 41.5q86 0 146 -52l31 41h59l-58 -76q45 -64 45 -155q0 -104 -37.5 -205.5t-112 -172t-167.5 -70.5zM278 59q62 0 116 57.5t83 144t29 175.5q0 46 -16 84l-317 -416
q39 -45 105 -45zM133 229q0 -46 14 -82l317 416q-39 44 -103 44q-63 0 -116.5 -58t-82.5 -144.5t-29 -175.5z" />
    <glyph glyph-name="Ugrave" unicode="&#xd9;" horiz-adv-x="569" 
d="M451 728h-51l-103 144h73zM259 -12q-92 0 -146 49t-54 133q0 17 5 47l99 450h80l-100 -452q-4 -28 -4 -38q0 -54 33 -86t90 -32q62 0 97.5 38.5t53.5 117.5l99 452h80l-99 -451q-26 -113 -81.5 -170.5t-152.5 -57.5z" />
    <glyph glyph-name="Uacute" unicode="&#xda;" horiz-adv-x="569" 
d="M551 872l-167 -144h-53l146 144h74zM259 -12q-92 0 -146 49t-54 133q0 17 5 47l99 450h80l-100 -452q-4 -28 -4 -38q0 -54 33 -86t90 -32q62 0 97.5 38.5t53.5 117.5l99 452h80l-99 -451q-26 -113 -81.5 -170.5t-152.5 -57.5z" />
    <glyph glyph-name="Ucircumflex" unicode="&#xdb;" horiz-adv-x="569" 
d="M511 728h-44l-49 105l-92 -105h-48l112 144h70zM259 -12q-92 0 -146 49t-54 133q0 17 5 47l99 450h80l-100 -452q-4 -28 -4 -38q0 -54 33 -86t90 -32q62 0 97.5 38.5t53.5 117.5l99 452h80l-99 -451q-26 -113 -81.5 -170.5t-152.5 -57.5z" />
    <glyph glyph-name="Udieresis" unicode="&#xdc;" horiz-adv-x="569" 
d="M535 778q0 -20 -15.5 -35t-35.5 -15q-17 0 -28.5 11.5t-11.5 28.5q0 20 15.5 35t35.5 15q17 0 28.5 -12t11.5 -28zM360 778q0 -20 -15 -35t-35 -15q-17 0 -28.5 11.5t-11.5 28.5q0 20 15 35t35 15q17 0 28.5 -11.5t11.5 -28.5zM259 -12q-92 0 -146 49t-54 133q0 17 5 47
l99 450h80l-100 -452q-4 -28 -4 -38q0 -54 33 -86t90 -32q62 0 97.5 38.5t53.5 117.5l99 452h80l-99 -451q-26 -113 -81.5 -170.5t-152.5 -57.5z" />
    <glyph glyph-name="Yacute" unicode="&#xdd;" horiz-adv-x="501" 
d="M521 872l-167 -144h-53l146 144h74zM236 0h-79l62 282l-121 385h84l89 -308l225 308h93l-291 -385z" />
    <glyph glyph-name="Thorn" unicode="&#xde;" horiz-adv-x="488" 
d="M96 0h-80l147 667h80l-27 -120h113q66 0 109.5 -46t43.5 -116q0 -42 -13.5 -82.5t-40 -76t-73.5 -57.5t-106 -22h-121zM256 218q67 0 105 48t38 113q0 43 -25.5 70.5t-64.5 27.5h-108l-57 -259h112z" />
    <glyph glyph-name="germandbls" unicode="&#xdf;" horiz-adv-x="525" 
d="M487 143q0 -61 -45.5 -108t-121.5 -47q-106 0 -167 78l44 46q47 -65 121 -65q41 0 67.5 25.5t26.5 61.5q0 23 -18.5 41.5t-45.5 32t-54 29.5t-45.5 41.5t-18.5 59.5q0 36 17.5 63.5t42 43.5t49 30t42 32t17.5 41q0 29 -25 47t-61 18q-40 0 -70 -26.5t-42 -78.5l-112 -508
h-72l113 508q17 77 66 123t122 46q64 0 109.5 -33.5t45.5 -85.5q0 -35 -17.5 -61t-42.5 -42t-50 -30t-42.5 -33t-17.5 -43q0 -22 19 -40t46 -31.5t54.5 -29.5t46.5 -43t19 -62z" />
    <glyph glyph-name="agrave" unicode="&#xe0;" horiz-adv-x="452" 
d="M357 556h-51l-103 144h73zM340 0h-72l11 50q-52 -62 -124 -62q-57 0 -95.5 33.5t-38.5 95.5q0 81 48 136t118 55q90 0 133 -70l19 85q4 15 4 35q0 35 -27 56t-72 21q-64 0 -121 -51l-21 53q70 58 156 58q70 0 115 -31t45 -90q0 -18 -7 -49zM184 40q62 0 105 58l22 94
q-27 64 -106 64q-49 0 -79 -40.5t-30 -91.5q0 -41 24 -62.5t64 -21.5z" />
    <glyph glyph-name="aacute" unicode="&#xe1;" horiz-adv-x="452" 
d="M460 700l-167 -144h-53l146 144h74zM340 0h-72l11 50q-52 -62 -124 -62q-57 0 -95.5 33.5t-38.5 95.5q0 81 48 136t118 55q90 0 133 -70l19 85q4 15 4 35q0 35 -27 56t-72 21q-64 0 -121 -51l-21 53q70 58 156 58q70 0 115 -31t45 -90q0 -18 -7 -49zM184 40q62 0 105 58
l22 94q-27 64 -106 64q-49 0 -79 -40.5t-30 -91.5q0 -41 24 -62.5t64 -21.5z" />
    <glyph glyph-name="acircumflex" unicode="&#xe2;" horiz-adv-x="452" 
d="M418 556h-44l-49 105l-92 -105h-48l112 144h70zM340 0h-72l11 50q-52 -62 -124 -62q-57 0 -95.5 33.5t-38.5 95.5q0 81 48 136t118 55q90 0 133 -70l19 85q4 15 4 35q0 35 -27 56t-72 21q-64 0 -121 -51l-21 53q70 58 156 58q70 0 115 -31t45 -90q0 -18 -7 -49zM184 40
q62 0 105 58l22 94q-27 64 -106 64q-49 0 -79 -40.5t-30 -91.5q0 -41 24 -62.5t64 -21.5z" />
    <glyph glyph-name="atilde" unicode="&#xe3;" horiz-adv-x="452" 
d="M358 554q-23 0 -36.5 14.5t-17.5 32.5t-13.5 32.5t-25.5 14.5q-37 0 -56 -88h-43q28 134 106 134q23 0 36 -14.5t17.5 -32.5t14 -32.5t25.5 -14.5q36 0 56 88h43q-28 -134 -106 -134zM340 0h-72l11 50q-52 -62 -124 -62q-57 0 -95.5 33.5t-38.5 95.5q0 81 48 136t118 55
q90 0 133 -70l19 85q4 15 4 35q0 35 -27 56t-72 21q-64 0 -121 -51l-21 53q70 58 156 58q70 0 115 -31t45 -90q0 -18 -7 -49zM184 40q62 0 105 58l22 94q-27 64 -106 64q-49 0 -79 -40.5t-30 -91.5q0 -41 24 -62.5t64 -21.5z" />
    <glyph glyph-name="adieresis" unicode="&#xe4;" horiz-adv-x="452" 
d="M442 609q0 -20 -15.5 -35t-35.5 -15q-17 0 -28.5 11.5t-11.5 28.5q0 20 15.5 35t35.5 15q16 0 28 -11.5t12 -28.5zM267 609q0 -20 -15 -35t-35 -15q-17 0 -28.5 11.5t-11.5 28.5q0 19 15.5 34.5t34.5 15.5q17 0 28.5 -11.5t11.5 -28.5zM340 0h-72l11 50q-52 -62 -124 -62
q-57 0 -95.5 33.5t-38.5 95.5q0 81 48 136t118 55q90 0 133 -70l19 85q4 15 4 35q0 35 -27 56t-72 21q-64 0 -121 -51l-21 53q70 58 156 58q70 0 115 -31t45 -90q0 -18 -7 -49zM184 40q62 0 105 58l22 94q-27 64 -106 64q-49 0 -79 -40.5t-30 -91.5q0 -41 24 -62.5t64 -21.5
z" />
    <glyph glyph-name="aring" unicode="&#xe5;" horiz-adv-x="452" 
d="M308 554q-36 0 -58.5 23.5t-22.5 59.5q0 40 30 70t70 30q36 0 58.5 -23.5t22.5 -59.5q0 -40 -30 -70t-70 -30zM311 592q24 0 42 17.5t18 41.5q0 21 -13 34.5t-34 13.5q-24 0 -41.5 -17.5t-17.5 -41.5q0 -20 13 -34t33 -14zM340 0h-72l11 50q-52 -62 -124 -62
q-57 0 -95.5 33.5t-38.5 95.5q0 81 48 136t118 55q90 0 133 -70l19 85q4 15 4 35q0 35 -27 56t-72 21q-64 0 -121 -51l-21 53q70 58 156 58q70 0 115 -31t45 -90q0 -18 -7 -49zM184 40q62 0 105 58l22 94q-27 64 -106 64q-49 0 -79 -40.5t-30 -91.5q0 -41 24 -62.5t64 -21.5
z" />
    <glyph glyph-name="ae" unicode="&#xe6;" horiz-adv-x="746" 
d="M701 218h-314q-4 -17 -4 -44q0 -55 32 -90.5t90 -35.5q63 0 113 50l29 -48q-65 -62 -146 -62q-122 0 -163 96q-39 -44 -80 -70t-99 -26q-59 0 -98.5 34t-39.5 97q0 83 48 136t118 53q42 0 79 -17.5t55 -49.5l18 82q4 16 4 34q0 37 -27 57.5t-72 20.5q-61 0 -121 -51
l-21 53q70 58 156 58q124 0 134 -99q25 44 66.5 71.5t93.5 27.5q74 0 118.5 -47t44.5 -134q0 -47 -14 -96zM398 272h245q5 17 5 44q0 53 -28 86t-77 33q-57 0 -93 -49t-52 -114zM311 123q-3 18 -3 40q0 17 2 29q-11 31 -40.5 47.5t-64.5 16.5q-47 0 -78 -39.5t-31 -92.5
q0 -40 23.5 -62t64.5 -22q70 0 127 83z" />
    <glyph glyph-name="ccedilla" unicode="&#xe7;" horiz-adv-x="407" 
d="M159 -191q-59 0 -95 38l26 34q27 -33 71 -33q25 0 40 14t15 34q0 29 -31 29q-17 0 -31 -16l-28 18l38 66q-61 12 -96 60.5t-35 125.5q0 75 29 146.5t86 120.5t127 49q96 0 140 -70l-46 -46q-29 52 -92 52q-75 0 -122.5 -80.5t-47.5 -169.5q0 -64 31 -96.5t83 -32.5
q55 0 93 45l29 -52q-55 -57 -132 -57h-7l-26 -43q13 10 29 10q24 0 38.5 -15.5t14.5 -41.5q0 -38 -29 -63.5t-72 -25.5z" />
    <glyph glyph-name="egrave" unicode="&#xe8;" horiz-adv-x="469" 
d="M221 -12q-88 0 -138.5 50.5t-50.5 140.5q0 50 16.5 104t46 102t76 79t100.5 31q77 0 122 -48t45 -133q0 -48 -14 -96h-316q-4 -19 -4 -45q0 -54 31.5 -89.5t92.5 -35.5q63 0 113 50l28 -48q-65 -62 -148 -62zM362 272h4q5 23 5 45q0 52 -27.5 85t-78.5 33
q-55 0 -95.5 -50t-52.5 -113h245zM367 556h-51l-103 144h73z" />
    <glyph glyph-name="eacute" unicode="&#xe9;" horiz-adv-x="469" 
d="M221 -12q-88 0 -138.5 50.5t-50.5 140.5q0 50 16.5 104t46 102t76 79t100.5 31q77 0 122 -48t45 -133q0 -48 -14 -96h-316q-4 -19 -4 -45q0 -54 31.5 -89.5t92.5 -35.5q63 0 113 50l28 -48q-65 -62 -148 -62zM362 272h4q5 23 5 45q0 52 -27.5 85t-78.5 33
q-55 0 -95.5 -50t-52.5 -113h245zM469 700l-167 -144h-53l146 144h74z" />
    <glyph glyph-name="ecircumflex" unicode="&#xea;" horiz-adv-x="469" 
d="M221 -12q-88 0 -138.5 50.5t-50.5 140.5q0 50 16.5 104t46 102t76 79t100.5 31q77 0 122 -48t45 -133q0 -48 -14 -96h-316q-4 -19 -4 -45q0 -54 31.5 -89.5t92.5 -35.5q63 0 113 50l28 -48q-65 -62 -148 -62zM362 272h4q5 23 5 45q0 52 -27.5 85t-78.5 33
q-55 0 -95.5 -50t-52.5 -113h245zM425 556h-44l-49 105l-92 -105h-48l112 144h70z" />
    <glyph glyph-name="edieresis" unicode="&#xeb;" horiz-adv-x="469" 
d="M221 -12q-88 0 -138.5 50.5t-50.5 140.5q0 50 16.5 104t46 102t76 79t100.5 31q77 0 122 -48t45 -133q0 -48 -14 -96h-316q-4 -19 -4 -45q0 -54 31.5 -89.5t92.5 -35.5q63 0 113 50l28 -48q-65 -62 -148 -62zM362 272h4q5 23 5 45q0 52 -27.5 85t-78.5 33
q-55 0 -95.5 -50t-52.5 -113h245zM450 609q0 -20 -15.5 -35t-35.5 -15q-17 0 -28.5 11.5t-11.5 28.5q0 20 15.5 35t35.5 15q16 0 28 -11.5t12 -28.5zM275 609q0 -20 -15 -35t-35 -15q-17 0 -28.5 11.5t-11.5 28.5q0 19 15.5 34.5t34.5 15.5q17 0 28.5 -11.5t11.5 -28.5z" />
    <glyph glyph-name="igrave" unicode="&#xec;" horiz-adv-x="203" 
d="M228 556h-51l-103 144h73zM83 0h-71l107 483h71z" />
    <glyph glyph-name="iacute" unicode="&#xed;" horiz-adv-x="203" 
d="M331 700l-167 -144h-53l146 144h74zM83 0h-71l107 483h71z" />
    <glyph glyph-name="icircumflex" unicode="&#xee;" horiz-adv-x="203" 
d="M288 556h-44l-49 105l-92 -105h-48l112 144h70zM83 0h-71l107 483h71z" />
    <glyph glyph-name="idieresis" unicode="&#xef;" horiz-adv-x="203" 
d="M314 609q0 -20 -15.5 -35t-35.5 -15q-17 0 -28.5 11.5t-11.5 28.5q0 20 15.5 35t35.5 15q16 0 28 -11.5t12 -28.5zM139 609q0 -20 -15 -35t-35 -15q-17 0 -28.5 11.5t-11.5 28.5q0 19 15.5 34.5t34.5 15.5q17 0 28.5 -11.5t11.5 -28.5zM83 0h-71l107 483h71z" />
    <glyph glyph-name="eth" unicode="&#xf0;" horiz-adv-x="478" 
d="M179 514l-9 40l125 37q-23 37 -49 66l62 38q36 -44 60 -82l94 28l9 -39l-81 -25q60 -109 60 -217q0 -88 -26.5 -171t-83 -142t-131.5 -59q-83 0 -130 49.5t-47 133.5q0 73 27.5 143.5t79.5 118t114 47.5q42 0 76 -22.5t49 -66.5q-18 81 -62 164zM211 52q43 0 80.5 41
t56.5 97.5t19 108.5q0 46 -26.5 82t-78.5 36q-64 0 -109.5 -80.5t-45.5 -162.5q0 -60 27 -91t77 -31z" />
    <glyph glyph-name="ntilde" unicode="&#xf1;" horiz-adv-x="466" 
d="M347 0h-72l76 343q5 23 5 30q0 58 -70 58q-63 0 -124 -79l-78 -352h-71l107 483h71l-15 -67q69 79 144 79q52 0 82 -25.5t30 -71.5q0 -14 -5 -36zM361 554q-23 0 -36.5 14.5t-17.5 32.5t-13.5 32.5t-25.5 14.5q-37 0 -56 -88h-43q28 134 106 134q23 0 36 -14.5
t17.5 -32.5t14 -32.5t25.5 -14.5q36 0 56 88h43q-28 -134 -106 -134z" />
    <glyph glyph-name="ograve" unicode="&#xf2;" horiz-adv-x="478" 
d="M206 -12q-81 0 -127.5 49.5t-46.5 136.5q0 75 28 147.5t84.5 123t126.5 50.5q81 0 127 -49.5t46 -136.5q0 -75 -28 -147.5t-84.5 -123t-125.5 -50.5zM209 52q46 0 84 43.5t57.5 101.5t19.5 111q0 60 -27 91.5t-76 31.5q-46 0 -84 -43.5t-57 -101.5t-19 -111
q0 -60 27 -91.5t75 -31.5zM367 556h-51l-103 144h73z" />
    <glyph glyph-name="oacute" unicode="&#xf3;" horiz-adv-x="478" 
d="M206 -12q-81 0 -127.5 49.5t-46.5 136.5q0 75 28 147.5t84.5 123t126.5 50.5q81 0 127 -49.5t46 -136.5q0 -75 -28 -147.5t-84.5 -123t-125.5 -50.5zM209 52q46 0 84 43.5t57.5 101.5t19.5 111q0 60 -27 91.5t-76 31.5q-46 0 -84 -43.5t-57 -101.5t-19 -111
q0 -60 27 -91.5t75 -31.5zM468 700l-167 -144h-53l146 144h74z" />
    <glyph glyph-name="ocircumflex" unicode="&#xf4;" horiz-adv-x="478" 
d="M206 -12q-81 0 -127.5 49.5t-46.5 136.5q0 75 28 147.5t84.5 123t126.5 50.5q81 0 127 -49.5t46 -136.5q0 -75 -28 -147.5t-84.5 -123t-125.5 -50.5zM209 52q46 0 84 43.5t57.5 101.5t19.5 111q0 60 -27 91.5t-76 31.5q-46 0 -84 -43.5t-57 -101.5t-19 -111
q0 -60 27 -91.5t75 -31.5zM426 556h-44l-49 105l-92 -105h-48l112 144h70z" />
    <glyph glyph-name="otilde" unicode="&#xf5;" horiz-adv-x="478" 
d="M206 -12q-81 0 -127.5 49.5t-46.5 136.5q0 75 28 147.5t84.5 123t126.5 50.5q81 0 127 -49.5t46 -136.5q0 -75 -28 -147.5t-84.5 -123t-125.5 -50.5zM209 52q46 0 84 43.5t57.5 101.5t19.5 111q0 60 -27 91.5t-76 31.5q-46 0 -84 -43.5t-57 -101.5t-19 -111
q0 -60 27 -91.5t75 -31.5zM366 554q-23 0 -36.5 14.5t-17.5 32.5t-13.5 32.5t-25.5 14.5q-37 0 -56 -88h-43q28 134 106 134q23 0 36 -14.5t17.5 -32.5t14 -32.5t25.5 -14.5q36 0 56 88h43q-28 -134 -106 -134z" />
    <glyph glyph-name="odieresis" unicode="&#xf6;" horiz-adv-x="478" 
d="M206 -12q-81 0 -127.5 49.5t-46.5 136.5q0 75 28 147.5t84.5 123t126.5 50.5q81 0 127 -49.5t46 -136.5q0 -75 -28 -147.5t-84.5 -123t-125.5 -50.5zM209 52q46 0 84 43.5t57.5 101.5t19.5 111q0 60 -27 91.5t-76 31.5q-46 0 -84 -43.5t-57 -101.5t-19 -111
q0 -60 27 -91.5t75 -31.5zM452 609q0 -20 -15.5 -35t-35.5 -15q-17 0 -28.5 11.5t-11.5 28.5q0 20 15.5 35t35.5 15q16 0 28 -11.5t12 -28.5zM277 609q0 -20 -15 -35t-35 -15q-17 0 -28.5 11.5t-11.5 28.5q0 19 15.5 34.5t34.5 15.5q17 0 28.5 -11.5t11.5 -28.5z" />
    <glyph glyph-name="divide" unicode="&#xf7;" horiz-adv-x="443" 
d="M428 312h-384l11 51h385zM200 123q-17 0 -28.5 12t-11.5 29q0 20 14.5 34.5t34.5 14.5q17 0 29 -12.5t12 -29.5q0 -20 -15 -34t-35 -14zM275 458q-17 0 -29 12t-12 29q0 20 14.5 34t34.5 14q17 0 29 -12t12 -29q0 -20 -14.5 -34t-34.5 -14z" />
    <glyph glyph-name="oslash" unicode="&#xf8;" horiz-adv-x="478" 
d="M52 0h-52l57 65q-25 43 -25 109q0 75 28 147.5t84.5 123t126.5 50.5q75 0 122 -45l28 33h52l-56 -64q27 -46 27 -110q0 -75 -28 -147.5t-84.5 -123t-125.5 -50.5q-79 0 -125 46zM209 52q46 0 84 43.5t57.5 101.5t19.5 111q0 28 -6 50l-235 -269q27 -37 80 -37zM107 175
q0 -29 5 -47l233 268q-27 35 -78 35q-46 0 -84 -43.5t-57 -101.5t-19 -111z" />
    <glyph glyph-name="ugrave" unicode="&#xf9;" horiz-adv-x="465" 
d="M118 483h72l-76 -343q-4 -18 -4 -30q0 -58 69 -58q65 0 123 77l79 354h72l-107 -483h-72l15 67q-69 -79 -144 -79q-51 0 -81 25.5t-30 71.5q0 21 5 36zM361 556h-51l-103 144h73z" />
    <glyph glyph-name="uacute" unicode="&#xfa;" horiz-adv-x="465" 
d="M118 483h72l-76 -343q-4 -18 -4 -30q0 -58 69 -58q65 0 123 77l79 354h72l-107 -483h-72l15 67q-69 -79 -144 -79q-51 0 -81 25.5t-30 71.5q0 21 5 36zM463 700l-167 -144h-53l146 144h74z" />
    <glyph glyph-name="ucircumflex" unicode="&#xfb;" horiz-adv-x="465" 
d="M118 483h72l-76 -343q-4 -18 -4 -30q0 -58 69 -58q65 0 123 77l79 354h72l-107 -483h-72l15 67q-69 -79 -144 -79q-51 0 -81 25.5t-30 71.5q0 21 5 36zM419 556h-44l-49 105l-92 -105h-48l112 144h70z" />
    <glyph glyph-name="udieresis" unicode="&#xfc;" horiz-adv-x="465" 
d="M118 483h72l-76 -343q-4 -18 -4 -30q0 -58 69 -58q65 0 123 77l79 354h72l-107 -483h-72l15 67q-69 -79 -144 -79q-51 0 -81 25.5t-30 71.5q0 21 5 36zM447 609q0 -20 -15.5 -35t-35.5 -15q-17 0 -28.5 11.5t-11.5 28.5q0 20 15.5 35t35.5 15q17 0 28.5 -11.5t11.5 -28.5
zM272 609q0 -20 -15 -35t-35 -15q-17 0 -28.5 11.5t-11.5 28.5q0 19 15 34.5t35 15.5q17 0 28.5 -11.5t11.5 -28.5z" />
    <glyph glyph-name="yacute" unicode="&#xfd;" horiz-adv-x="465" 
d="M461 700l-167 -144h-53l146 144h74zM141 -196q-119 0 -174 69l45 55q38 -60 129 -60q102 0 132 129l17 78q-72 -78 -143 -78q-50 0 -80.5 24.5t-30.5 71.5q0 16 4 36l79 354h71l-74 -335q-4 -15 -4 -30q0 -58 69 -58q33 0 66 22.5t57 55.5l77 345h72l-108 -486
q-43 -193 -204 -193z" />
    <glyph glyph-name="thorn" unicode="&#xfe;" horiz-adv-x="479" 
d="M228 -12q-92 0 -129 85l-57 -257h-71l188 851h71l-55 -250q54 78 131 78q66 0 104 -45t38 -126q0 -73 -24.5 -148.5t-77 -131.5t-118.5 -56zM217 52q46 0 83 45t55 104t18 113q0 56 -25.5 86.5t-70.5 30.5q-33 0 -64.5 -23.5t-52.5 -57.5l-48 -218q11 -35 39.5 -57.5
t65.5 -22.5z" />
    <glyph glyph-name="ydieresis" unicode="&#xff;" horiz-adv-x="465" 
d="M443 609q0 -20 -15.5 -35t-35.5 -15q-17 0 -28.5 11.5t-11.5 28.5q0 20 15.5 35t35.5 15q17 0 28.5 -11.5t11.5 -28.5zM268 609q0 -20 -15 -35t-35 -15q-17 0 -28.5 11.5t-11.5 28.5q0 19 15 34.5t35 15.5q17 0 28.5 -11.5t11.5 -28.5zM141 -196q-119 0 -174 69l45 55
q38 -60 129 -60q102 0 132 129l17 78q-72 -78 -143 -78q-50 0 -80.5 24.5t-30.5 71.5q0 16 4 36l79 354h71l-74 -335q-4 -15 -4 -30q0 -58 69 -58q33 0 66 22.5t57 55.5l77 345h72l-108 -486q-43 -193 -204 -193z" />
    <glyph glyph-name="dotlessi" unicode="&#x131;" horiz-adv-x="203" 
d="M83 0h-71l107 483h71z" />
    <glyph glyph-name="Lslash" unicode="&#x141;" horiz-adv-x="436" 
d="M13 234l16 69l78 40l72 324h80l-61 -277l89 46l-15 -69l-90 -46l-55 -250h242l-15 -71h-322l60 275z" />
    <glyph glyph-name="lslash" unicode="&#x142;" horiz-adv-x="269" 
d="M15 244l13 58l85 43l72 322h71l-62 -281l86 44l-13 -58l-86 -44l-48 -216q0 -2 -1.5 -11t-1.5 -14q0 -35 39 -35q22 0 39 15l9 -57q-27 -22 -65 -22q-46 0 -71.5 19.5t-25.5 56.5q0 17 4 36l41 187z" />
    <glyph glyph-name="OE" unicode="&#x152;" horiz-adv-x="852" 
d="M749 0h-343l18 84q-66 -96 -177 -96q-89 0 -143 66.5t-54 174.5q0 99 38.5 201t114 174.5t166.5 72.5q127 0 161 -116l23 106h343l-15 -71h-264l-48 -219h257l-16 -71h-257l-52 -235h264zM448 190l59 266q-8 73 -44.5 111.5t-95.5 38.5q-65 0 -120.5 -62.5t-84.5 -148.5
t-29 -166q0 -77 37 -123.5t102 -46.5q50 0 97.5 35t78.5 96z" />
    <glyph glyph-name="oe" unicode="&#x153;" horiz-adv-x="787" 
d="M743 218h-312q-4 -14 -4 -45q0 -56 31.5 -90.5t90.5 -34.5q63 0 111 50l28 -48q-64 -62 -146 -62q-69 0 -111.5 36.5t-50.5 87.5q-34 -57 -74.5 -90.5t-101.5 -33.5q-80 0 -126 49t-46 137q0 77 28 149.5t84 122t125 49.5q62 0 101 -36.5t47 -85.5q69 122 175 122
q75 0 120 -47.5t45 -133.5q0 -48 -14 -96zM440 272h245q5 17 5 45q0 53 -26.5 85.5t-76.5 32.5q-57 0 -97 -51t-50 -112zM366 308q0 61 -27.5 92t-73.5 31q-66 0 -112 -84t-46 -172q0 -59 25.5 -91.5t74.5 -32.5q45 0 83 43.5t57 101.5t19 112z" />
    <glyph glyph-name="Scaron" unicode="&#x160;" horiz-adv-x="466" 
d="M383 728h-70l-51 144h44l48 -105l93 105h48zM206 -12q-66 0 -122 26.5t-84 67.5l52 58q25 -37 67 -59t90 -22q58 0 92.5 37t34.5 91q0 33 -24.5 60.5t-59 49.5t-69 45.5t-59 60t-24.5 81.5q0 80 60 137t146 57q57 0 106 -21.5t77 -59.5l-50 -57q-49 67 -138 67
q-50 0 -83.5 -33.5t-33.5 -78.5q0 -29 24.5 -55.5t59 -48.5t69 -47t59 -62t24.5 -83q0 -87 -59 -149t-155 -62z" />
    <glyph glyph-name="scaron" unicode="&#x161;" horiz-adv-x="388" 
d="M159 -12q-115 0 -166 76l45 48q17 -28 50.5 -47t73.5 -19q42 0 69 25.5t27 59.5q0 24 -20 44t-48.5 36t-57 33t-48.5 44t-20 61q0 61 44 103.5t118 42.5q48 0 88.5 -19t62.5 -50l-42 -47q-13 24 -45 41t-67 17q-39 0 -63.5 -21t-24.5 -54q0 -22 20 -41t48.5 -34.5
t57.5 -33t49 -45.5t20 -63q0 -65 -47 -111t-124 -46zM300 556h-70l-51 144h44l48 -105l93 105h48z" />
    <glyph glyph-name="Ydieresis" unicode="&#x178;" horiz-adv-x="501" 
d="M503 778q0 -20 -15.5 -35t-35.5 -15q-17 0 -28.5 11.5t-11.5 28.5q0 20 15.5 35t35.5 15q17 0 28.5 -12t11.5 -28zM328 778q0 -20 -15 -35t-35 -15q-17 0 -28.5 11.5t-11.5 28.5q0 20 15 35t35 15q17 0 28.5 -11.5t11.5 -28.5zM236 0h-79l62 282l-121 385h84l89 -308
l225 308h93l-291 -385z" />
    <glyph glyph-name="Zcaron" unicode="&#x17d;" horiz-adv-x="463" 
d="M375 728h-70l-51 144h44l48 -105l93 105h48zM369 0h-383l15 68l393 528h-276l15 71h376l-14 -66l-395 -530h284z" />
    <glyph glyph-name="zcaron" unicode="&#x17e;" horiz-adv-x="388" 
d="M291 0h-302l12 56l288 364h-207l14 63h298l-12 -55l-289 -365h211zM295 556h-70l-51 144h44l48 -105l93 105h48z" />
    <glyph glyph-name="florin" unicode="&#x192;" horiz-adv-x="398" 
d="M50 -161h-80l92 416h-58v65h72l50 227q29 130 137 130q59 0 92 -34l-32 -56q-16 19 -46 19q-57 0 -73 -74l-47 -212h115v-65h-129z" />
    <glyph glyph-name="circumflex" unicode="&#x2c6;" horiz-adv-x="233" 
d="M302 556h-44l-49 105l-92 -105h-48l112 144h70z" />
    <glyph glyph-name="caron" unicode="&#x2c7;" horiz-adv-x="233" 
d="M222 556h-70l-51 144h44l48 -105l93 105h48z" />
    <glyph glyph-name="breve" unicode="&#x2d8;" horiz-adv-x="295" 
d="M382 638q-72 -75 -163 -75q-44 0 -79 20t-53 55l41 30q27 -58 98 -58t123 58z" />
    <glyph glyph-name="dotaccent" unicode="&#x2d9;" horiz-adv-x="108" 
d="M183 624q0 -20 -15.5 -35t-35.5 -15q-18 0 -29.5 11.5t-11.5 28.5q0 20 15.5 35.5t35.5 15.5q18 0 29.5 -11.5t11.5 -29.5z" />
    <glyph glyph-name="ring" unicode="&#x2da;" horiz-adv-x="181" 
d="M169 554q-36 0 -58.5 23.5t-22.5 59.5q0 40 30 70t70 30q36 0 58.5 -23.5t22.5 -59.5q0 -40 -29.5 -70t-70.5 -30zM172 592q24 0 42 17.5t18 41.5q0 21 -13 34.5t-34 13.5q-24 0 -41.5 -17.5t-17.5 -41.5q0 -20 13 -34t33 -14z" />
    <glyph glyph-name="ogonek" unicode="&#x2db;" horiz-adv-x="158" 
d="M44 -111l31 -23q-31 -52 -81 -52q-33 0 -53 17t-20 48q0 84 110 144l29 -23q-96 -50 -96 -115q0 -33 34 -33q29 0 46 37z" />
    <glyph glyph-name="tilde" unicode="&#x2dc;" horiz-adv-x="270" 
d="M262 554q-23 0 -36.5 14.5t-17.5 32.5t-13.5 32.5t-25.5 14.5q-37 0 -56 -88h-43q28 134 106 134q23 0 36 -14.5t17.5 -32.5t14 -32.5t25.5 -14.5q36 0 56 88h43q-28 -134 -106 -134z" />
    <glyph glyph-name="hungarumlaut" unicode="&#x2dd;" horiz-adv-x="269" 
d="M240 700l-128 -144h-45l107 144h66zM370 700l-129 -144h-45l107 144h67z" />
    <glyph glyph-name="pi" unicode="&#x3c0;" horiz-adv-x="455" 
d="M318 0h-73l96 435h-143l-96 -435h-73l96 435h-58l14 65h405l-14 -65h-57z" />
    <glyph glyph-name="endash" unicode="&#x2013;" horiz-adv-x="527" 
d="M489 210h-467l14 64h466z" />
    <glyph glyph-name="emdash" unicode="&#x2014;" horiz-adv-x="737" 
d="M699 210h-677l14 64h676z" />
    <glyph glyph-name="quoteleft" unicode="&#x2018;" horiz-adv-x="229" 
d="M114 517q0 45 33.5 90.5t80.5 69.5l30 -31q-29 -15 -52 -38t-31 -46h8q17 0 29 -12.5t12 -31.5q0 -24 -17.5 -40.5t-40.5 -16.5q-22 0 -37 14.5t-15 41.5z" />
    <glyph glyph-name="quoteright" unicode="&#x2019;" horiz-adv-x="229" 
d="M254 620q0 -45 -33.5 -90.5t-79.5 -69.5l-30 32q28 14 51.5 37.5t31.5 46.5h-8q-17 0 -29 12t-12 32q0 23 17.5 40t40.5 17q22 0 36.5 -15t14.5 -42z" />
    <glyph glyph-name="quotesinglbase" unicode="&#x201a;" horiz-adv-x="229" 
d="M125 40q0 -45 -33 -90.5t-80 -69.5l-30 32q28 14 51.5 37t31.5 47q-1 -1 -8 -1q-17 0 -29 12.5t-12 31.5q0 24 17.5 41t40.5 17q22 0 36.5 -15t14.5 -42z" />
    <glyph glyph-name="quotedblleft" unicode="&#x201c;" horiz-adv-x="386" 
d="M275 517q0 45 33.5 90.5t80.5 69.5l30 -31q-29 -15 -52.5 -38t-31.5 -46h8q17 0 29.5 -12.5t12.5 -31.5q0 -24 -17.5 -40.5t-40.5 -16.5t-37.5 14.5t-14.5 41.5zM119 517q0 45 33.5 90.5t80.5 69.5l29 -31q-28 -15 -51.5 -38t-31.5 -46h8q17 0 29 -12.5t12 -31.5
q0 -24 -17.5 -40.5t-40.5 -16.5q-22 0 -36.5 14.5t-14.5 41.5z" />
    <glyph glyph-name="quotedblright" unicode="&#x201d;" horiz-adv-x="386" 
d="M254 620q0 -45 -33.5 -90.5t-79.5 -69.5l-30 32q28 14 51.5 37.5t31.5 46.5h-8q-17 0 -29 12t-12 32q0 23 17.5 40t40.5 17q22 0 36.5 -15t14.5 -42zM411 620q0 -45 -33.5 -90.5t-80.5 -69.5l-30 32q28 14 51.5 37t31.5 47h-8q-17 0 -29 12t-12 32q0 23 17.5 40t40.5 17
q22 0 37 -15t15 -42z" />
    <glyph glyph-name="quotedblbase" unicode="&#x201e;" horiz-adv-x="386" 
d="M125 40q0 -45 -33 -90.5t-80 -69.5l-30 32q28 14 51.5 37t31.5 47q-1 -1 -8 -1q-17 0 -29 12.5t-12 31.5q0 24 17.5 41t40.5 17q22 0 36.5 -15t14.5 -42zM282 40q0 -45 -33.5 -90.5t-80.5 -69.5l-30 32q29 14 52.5 37t31.5 47q-1 -1 -8 -1q-17 0 -29.5 12.5t-12.5 31.5
q0 24 17.5 41t40.5 17t37.5 -15t14.5 -42z" />
    <glyph glyph-name="dagger" unicode="&#x2020;" horiz-adv-x="262" 
d="M303 532l-88 4l-43 -209h-47l51 209l-90 -4l9 42l89 -3l19 106h47l-28 -106l90 3z" />
    <glyph glyph-name="daggerdbl" unicode="&#x2021;" horiz-adv-x="262" 
d="M312 574l-9 -42l-88 4l-48 -214l90 4l-9 -42l-88 3l-21 -107h-47l29 107l-90 -3l9 42l88 -4l48 214l-90 -4l9 42l88 -3l20 106h47l-28 -106z" />
    <glyph glyph-name="bullet" unicode="&#x2022;" horiz-adv-x="358" 
d="M287 253q0 -48 -36 -82.5t-84 -34.5q-41 0 -68.5 27.5t-27.5 68.5q0 48 36 82.5t84 34.5q41 0 68.5 -27.5t27.5 -68.5z" />
    <glyph glyph-name="ellipsis" unicode="&#x2026;" horiz-adv-x="685" 
d="M65 -10q-21 0 -35 14.5t-14 34.5q0 24 17.5 41t41.5 17q20 0 34 -14.5t14 -35.5q0 -24 -17 -40.5t-41 -16.5zM293 -10q-20 0 -34.5 14.5t-14.5 34.5q0 24 17.5 41t41.5 17q20 0 34.5 -14.5t14.5 -35.5q0 -24 -17.5 -40.5t-41.5 -16.5zM522 -10q-21 0 -35 14.5t-14 34.5
q0 24 17 41t41 17q21 0 35 -14.5t14 -35.5q0 -24 -17 -40.5t-41 -16.5z" />
    <glyph glyph-name="perthousand" unicode="&#x2030;" horiz-adv-x="962" 
d="M121 0h-47l497 667h48zM441 -12q-57 0 -91.5 36t-34.5 92q0 85 49 143t113 58q57 0 92 -36t35 -92q0 -85 -49 -143t-114 -58zM443 37q41 0 73 43t32 104q0 39 -20 61.5t-53 22.5q-40 0 -72 -43t-32 -104q0 -39 19.5 -61.5t52.5 -22.5zM212 348q-57 0 -92 36.5t-35 91.5
q0 85 49 143t114 58q57 0 91.5 -36t34.5 -92q0 -85 -49 -143t-113 -58zM214 397q40 0 72 43t32 104q0 39 -19.5 61.5t-52.5 22.5q-41 0 -73 -43t-32 -104q0 -39 20 -61.5t53 -22.5zM752 -12q-56 0 -91 36t-35 92q0 85 49 143t114 58q56 0 91 -36t35 -92q0 -85 -49 -143
t-114 -58zM754 37q41 0 73 43t32 104q0 39 -20 61.5t-53 22.5q-40 0 -72 -43t-32 -104q0 -39 19.5 -61.5t52.5 -22.5z" />
    <glyph glyph-name="guilsinglleft" unicode="&#x2039;" horiz-adv-x="252" 
d="M178 63h-64l-85 180l165 177h70l-169 -181z" />
    <glyph glyph-name="guilsinglright" unicode="&#x203a;" horiz-adv-x="252" 
d="M75 420h64l85 -180l-165 -177h-70l169 182z" />
    <glyph glyph-name="fraction" unicode="&#x2044;" horiz-adv-x="127" 
d="M355 667l-497 -667h-47l496 667h48z" />
    <glyph glyph-name="Euro" unicode="&#x20ac;" horiz-adv-x="550" 
d="M292 -12q-101 0 -162 64t-61 177v9h-47l11 50h39q7 55 17 92h-36l12 51h41q41 109 114.5 178t165.5 69q78 0 128.5 -42.5t72.5 -113.5l-75 -22q-35 107 -132 107q-57 0 -105.5 -48.5t-81.5 -127.5h216l-12 -51h-223q-13 -42 -19 -92h222l-12 -50h-213v-9
q0 -81 38.5 -125.5t106.5 -44.5q72 0 136 81l61 -37q-84 -115 -202 -115z" />
    <glyph glyph-name="trademark" unicode="&#x2122;" horiz-adv-x="414" 
d="M424 447h-28l40 182l-105 -182h-8l-25 182l-40 -182h-28l48 220h43l20 -158l88 158h43zM237 641h-52l-43 -194h-28l43 194h-52l5 26h132z" />
    <glyph glyph-name="Omega" unicode="&#x2126;" horiz-adv-x="594" 
d="M3 0l15 71h116q-80 75 -80 196q0 65 21.5 136t59.5 133t97.5 102t128.5 40q102 0 163.5 -60.5t61.5 -175.5q0 -119 -55.5 -216t-142.5 -155h110l-15 -71h-187l6 28l9 43q78 33 134.5 145t56.5 219q0 82 -37.5 126.5t-105.5 44.5q-49 0 -93.5 -36.5t-73 -92.5t-45 -119.5
t-16.5 -120.5q0 -114 74 -166l-9 -43l-6 -28h-187z" />
    <glyph glyph-name="partialdiff" unicode="&#x2202;" horiz-adv-x="478" 
d="M209 -12q-83 0 -130.5 50t-47.5 133q0 73 27.5 143.5t80 118t114.5 47.5q42 0 76 -22.5t49 -66.5q-14 68 -50 142t-82 124l62 38q142 -171 142 -335q0 -88 -26.5 -171t-83 -142t-131.5 -59zM211 52q43 0 80.5 41t56.5 97.5t19 108.5q0 46 -26.5 82t-78.5 36
q-64 0 -109.5 -80.5t-45.5 -162.5q0 -60 27 -91t77 -31z" />
    <glyph glyph-name="Delta" unicode="&#x2206;" horiz-adv-x="512" 
d="M450 0h-496l348 667h95zM366 71l-33 508l-258 -508h291z" />
    <glyph glyph-name="product" unicode="&#x220f;" horiz-adv-x="568" 
d="M387 -90h-80l152 686h-196l-151 -686h-80l152 686h-81l15 71h517l-15 -71h-81z" />
    <glyph glyph-name="summation" unicode="&#x2211;" horiz-adv-x="452" 
d="M214 596l108 -303l-242 -312h269l-15 -71h-360l15 72l245 316l-107 299l15 70h359l-15 -71h-272z" />
    <glyph glyph-name="minus" unicode="&#x2212;" 
d="M423 309h-380l11 51h381z" />
    <glyph glyph-name="radical" unicode="&#x221a;" horiz-adv-x="596" 
d="M304 0h-56l-30 323l-142 -43l-3 49l192 56l27 -311l317 593h55z" />
    <glyph glyph-name="infinity" unicode="&#x221e;" horiz-adv-x="567" 
d="M155 171q-52 0 -81.5 34t-29.5 90q0 79 44.5 142t112.5 63q44 0 74 -31t40 -80q60 111 136 111q52 0 81.5 -34t29.5 -91q0 -79 -44 -141.5t-113 -62.5q-44 0 -74 30.5t-40 79.5q-60 -110 -136 -110zM405 222q46 0 75 45.5t29 101.5q0 37 -18.5 58.5t-48.5 21.5
q-56 0 -115 -117q11 -110 78 -110zM165 222q34 0 61 31t55 85q-11 111 -79 111q-46 0 -75.5 -45.5t-29.5 -101.5q0 -36 19 -58t49 -22z" />
    <glyph glyph-name="integral" unicode="&#x222b;" horiz-adv-x="291" 
d="M-14 -100h-45l11 53h46q55 0 69 66l140 630q26 119 137 119h46l-13 -53h-45q-55 0 -69 -66l-140 -630q-26 -119 -137 -119z" />
    <glyph glyph-name="approxequal" unicode="&#x2248;" 
d="M21 212l13 55q37 -26 89 -26q40 0 96 23t104 23q55 0 91 -21l-12 -56q-36 26 -90 26q-40 0 -96 -23t-104 -23q-53 0 -91 22zM64 402l12 56q35 -26 89 -26q40 0 96 23t104 23q53 0 91 -22l-12 -55q-38 26 -90 26q-40 0 -96 -23t-104 -23q-54 0 -90 21z" />
    <glyph glyph-name="notequal" unicode="&#x2260;" 
d="M84 93h-50l89 119h-102l12 51h128l106 142h-203l12 51h229l88 118h51l-89 -118h101l-11 -51h-128l-106 -142h202l-11 -51h-229z" />
    <glyph glyph-name="lessequal" unicode="&#x2264;" 
d="M383 130l-339 183l11 51l421 184l-14 -63l-351 -150l285 -148zM360 22h-380l10 51h381z" />
    <glyph glyph-name="greaterequal" unicode="&#x2265;" 
d="M424 313l-421 -183l14 63l352 148l-286 150l13 57l340 -184zM360 22h-381l11 51h381z" />
    <glyph glyph-name="lozenge" unicode="&#x25ca;" horiz-adv-x="375" 
d="M144 0h-21l-84 334l231 333h21l85 -333zM142 45l197 293l-67 284l-196 -292z" />
    <glyph glyph-name="apple" unicode="&#xf8ff;" horiz-adv-x="667" 
d="M207 153l16 76h-83q-34 0 -58.5 -25.5t-24.5 -59.5q0 -28 18 -47t46 -19q33 0 55.5 20t30.5 55zM269 438l15 66q2 7 2 20q0 30 -18 47.5t-48 17.5q-35 0 -59.5 -24t-24.5 -58q0 -31 19.5 -50t50.5 -19h63zM269 265h137l31 137h-137zM570 160q0 31 -19.5 50t-51.5 19h-63
l-14 -66q-2 -6 -2 -20q0 -30 18 -47.5t48 -17.5q35 0 59.5 24t24.5 58zM649 523q0 28 -18 47t-46 19q-34 0 -56 -20t-30 -55l-16 -76h82q34 0 59 25.5t25 59.5zM607 160q0 -48 -39 -83t-89 -35q-42 0 -70 28t-28 70q0 14 3 29l14 60h-137l-19 -84q-11 -46 -45 -74.5
t-80 -28.5q-41 0 -70 28t-29 69q0 49 38 87.5t87 38.5h88l31 137h-63q-45 0 -72.5 29.5t-27.5 75.5q0 48 38.5 83t88.5 35q42 0 70 -28t28 -70q0 -14 -3 -29l-14 -60h137l19 84q11 46 45 74.5t80 28.5q42 0 71 -28t29 -69q0 -50 -38 -88t-87 -38h-88l-31 -137h60
q46 0 74.5 -29.5t28.5 -75.5z" />
    </font>
</defs>
</svg>
